<svg width="600" height="290" viewBox="0 0 600 290" fill="none" xmlns="http://www.w3.org/2000/svg">
<g filter="url(#filter0_df_394_3)">
<path d="M166.688 238.156H206.484C212.578 238.156 217.312 236.609 220.688 233.516C224.062 230.422 225.75 226.109 225.75 220.578V184.438C225.75 179.281 224.812 174.828 222.938 171.078C221.156 167.328 218.672 164.469 215.484 162.5C212.391 160.531 208.922 159.547 205.078 159.547H166.688V140.703H205.078C210.797 140.703 215.203 138.734 218.297 134.797C221.484 130.859 223.078 125.328 223.078 118.203V88.8125C223.078 83.2813 221.484 79.0156 218.297 76.0156C215.203 72.9219 210.891 71.375 205.359 71.375H166.688V52.5312H204.656C212.812 52.5312 219.75 53.9375 225.469 56.75C231.281 59.4687 235.688 63.4531 238.688 68.7031C241.781 73.8594 243.328 80.1406 243.328 87.5469V114.969C243.328 121.438 242.578 127.156 241.078 132.125C239.578 137.094 237.422 141.172 234.609 144.359C231.797 147.547 228.375 149.703 224.344 150.828C228.938 151.766 232.828 153.875 236.016 157.156C239.297 160.438 241.781 164.703 243.469 169.953C245.156 175.203 246 181.297 246 188.234V221C246 228.594 244.5 235.109 241.5 240.547C238.594 245.891 234.328 249.969 228.703 252.781C223.172 255.594 216.422 257 208.453 257H166.688V238.156ZM149.812 52.5312H170.062V257H149.812V52.5312ZM339.797 150.125C339.797 142.25 337.594 136.156 333.188 131.844C328.875 127.531 322.734 125.375 314.766 125.375C307.734 125.375 302.25 127.531 298.312 131.844C294.469 136.156 292.547 142.25 292.547 150.125H273C273 136.906 276.703 126.688 284.109 119.469C291.516 112.156 301.969 108.5 315.469 108.5C324.562 108.5 332.344 110.141 338.812 113.422C345.281 116.703 350.203 121.438 353.578 127.625C356.953 133.812 358.641 141.312 358.641 150.125V257H339.797V150.125ZM308.297 259.109C295.547 259.109 285.984 255.734 279.609 248.984C273.234 242.141 270.047 231.875 270.047 218.188C270.047 201.781 273.75 189.547 281.156 181.484C288.656 173.328 299.953 169.25 315.047 169.25H341.062L343.031 183.875H315.188C306.281 183.875 299.625 186.734 295.219 192.453C290.812 198.172 288.609 206.75 288.609 218.188C288.609 226.906 290.625 233.422 294.656 237.734C298.688 242.047 304.734 244.203 312.797 244.203C321.797 244.203 328.547 241.859 333.047 237.172C337.547 232.391 339.797 225.219 339.797 215.656L342.75 227.75C342.656 234.688 341.297 240.5 338.672 245.188C336.141 249.875 332.344 253.391 327.281 255.734C322.219 257.984 315.891 259.109 308.297 259.109ZM389.719 111.031H409.969V257H389.719V111.031ZM456.516 127.344C456.328 127.344 456.141 127.344 455.953 127.344C455.859 127.344 455.719 127.344 455.531 127.344C441.844 127.344 431.016 130.625 423.047 137.188C415.078 143.656 410.719 152.797 409.969 164.609L407.016 136.484C412.453 127.672 419.484 120.828 428.109 115.953C436.734 110.984 446.203 108.5 456.516 108.5V127.344Z" fill="#F03EFF"/>
<path d="M166.688 238.156H206.484C212.578 238.156 217.312 236.609 220.688 233.516C224.062 230.422 225.75 226.109 225.75 220.578V184.438C225.75 179.281 224.812 174.828 222.938 171.078C221.156 167.328 218.672 164.469 215.484 162.5C212.391 160.531 208.922 159.547 205.078 159.547H166.688V140.703H205.078C210.797 140.703 215.203 138.734 218.297 134.797C221.484 130.859 223.078 125.328 223.078 118.203V88.8125C223.078 83.2813 221.484 79.0156 218.297 76.0156C215.203 72.9219 210.891 71.375 205.359 71.375H166.688V52.5312H204.656C212.812 52.5312 219.75 53.9375 225.469 56.75C231.281 59.4687 235.688 63.4531 238.688 68.7031C241.781 73.8594 243.328 80.1406 243.328 87.5469V114.969C243.328 121.438 242.578 127.156 241.078 132.125C239.578 137.094 237.422 141.172 234.609 144.359C231.797 147.547 228.375 149.703 224.344 150.828C228.938 151.766 232.828 153.875 236.016 157.156C239.297 160.438 241.781 164.703 243.469 169.953C245.156 175.203 246 181.297 246 188.234V221C246 228.594 244.5 235.109 241.5 240.547C238.594 245.891 234.328 249.969 228.703 252.781C223.172 255.594 216.422 257 208.453 257H166.688V238.156ZM149.812 52.5312H170.062V257H149.812V52.5312ZM339.797 150.125C339.797 142.25 337.594 136.156 333.188 131.844C328.875 127.531 322.734 125.375 314.766 125.375C307.734 125.375 302.25 127.531 298.312 131.844C294.469 136.156 292.547 142.25 292.547 150.125H273C273 136.906 276.703 126.688 284.109 119.469C291.516 112.156 301.969 108.5 315.469 108.5C324.562 108.5 332.344 110.141 338.812 113.422C345.281 116.703 350.203 121.438 353.578 127.625C356.953 133.812 358.641 141.312 358.641 150.125V257H339.797V150.125ZM308.297 259.109C295.547 259.109 285.984 255.734 279.609 248.984C273.234 242.141 270.047 231.875 270.047 218.188C270.047 201.781 273.75 189.547 281.156 181.484C288.656 173.328 299.953 169.25 315.047 169.25H341.062L343.031 183.875H315.188C306.281 183.875 299.625 186.734 295.219 192.453C290.812 198.172 288.609 206.75 288.609 218.188C288.609 226.906 290.625 233.422 294.656 237.734C298.688 242.047 304.734 244.203 312.797 244.203C321.797 244.203 328.547 241.859 333.047 237.172C337.547 232.391 339.797 225.219 339.797 215.656L342.75 227.75C342.656 234.688 341.297 240.5 338.672 245.188C336.141 249.875 332.344 253.391 327.281 255.734C322.219 257.984 315.891 259.109 308.297 259.109ZM389.719 111.031H409.969V257H389.719V111.031ZM456.516 127.344C456.328 127.344 456.141 127.344 455.953 127.344C455.859 127.344 455.719 127.344 455.531 127.344C441.844 127.344 431.016 130.625 423.047 137.188C415.078 143.656 410.719 152.797 409.969 164.609L407.016 136.484C412.453 127.672 419.484 120.828 428.109 115.953C436.734 110.984 446.203 108.5 456.516 108.5V127.344Z" fill="#FF00B8"/>
</g>
<g filter="url(#filter1_f_394_3)">
<path d="M166.688 240.156H206.484C212.578 240.156 217.312 238.609 220.688 235.516C224.062 232.422 225.75 228.109 225.75 222.578V186.438C225.75 181.281 224.812 176.828 222.938 173.078C221.156 169.328 218.672 166.469 215.484 164.5C212.391 162.531 208.922 161.547 205.078 161.547H166.688V142.703H205.078C210.797 142.703 215.203 140.734 218.297 136.797C221.484 132.859 223.078 127.328 223.078 120.203V90.8125C223.078 85.2813 221.484 81.0156 218.297 78.0156C215.203 74.9219 210.891 73.375 205.359 73.375H166.688V54.5312H204.656C212.812 54.5312 219.75 55.9375 225.469 58.75C231.281 61.4687 235.688 65.4531 238.688 70.7031C241.781 75.8594 243.328 82.1406 243.328 89.5469V116.969C243.328 123.438 242.578 129.156 241.078 134.125C239.578 139.094 237.422 143.172 234.609 146.359C231.797 149.547 228.375 151.703 224.344 152.828C228.938 153.766 232.828 155.875 236.016 159.156C239.297 162.438 241.781 166.703 243.469 171.953C245.156 177.203 246 183.297 246 190.234V223C246 230.594 244.5 237.109 241.5 242.547C238.594 247.891 234.328 251.969 228.703 254.781C223.172 257.594 216.422 259 208.453 259H166.688V240.156ZM149.812 54.5312H170.062V259H149.812V54.5312ZM339.797 152.125C339.797 144.25 337.594 138.156 333.188 133.844C328.875 129.531 322.734 127.375 314.766 127.375C307.734 127.375 302.25 129.531 298.312 133.844C294.469 138.156 292.547 144.25 292.547 152.125H273C273 138.906 276.703 128.688 284.109 121.469C291.516 114.156 301.969 110.5 315.469 110.5C324.562 110.5 332.344 112.141 338.812 115.422C345.281 118.703 350.203 123.438 353.578 129.625C356.953 135.812 358.641 143.312 358.641 152.125V259H339.797V152.125ZM308.297 261.109C295.547 261.109 285.984 257.734 279.609 250.984C273.234 244.141 270.047 233.875 270.047 220.188C270.047 203.781 273.75 191.547 281.156 183.484C288.656 175.328 299.953 171.25 315.047 171.25H341.062L343.031 185.875H315.188C306.281 185.875 299.625 188.734 295.219 194.453C290.812 200.172 288.609 208.75 288.609 220.188C288.609 228.906 290.625 235.422 294.656 239.734C298.688 244.047 304.734 246.203 312.797 246.203C321.797 246.203 328.547 243.859 333.047 239.172C337.547 234.391 339.797 227.219 339.797 217.656L342.75 229.75C342.656 236.688 341.297 242.5 338.672 247.188C336.141 251.875 332.344 255.391 327.281 257.734C322.219 259.984 315.891 261.109 308.297 261.109ZM389.719 113.031H409.969V259H389.719V113.031ZM456.516 129.344C456.328 129.344 456.141 129.344 455.953 129.344C455.859 129.344 455.719 129.344 455.531 129.344C441.844 129.344 431.016 132.625 423.047 139.188C415.078 145.656 410.719 154.797 409.969 166.609L407.016 138.484C412.453 129.672 419.484 122.828 428.109 117.953C436.734 112.984 446.203 110.5 456.516 110.5V129.344Z" fill="white"/>
</g>
<defs>
<filter id="filter0_df_394_3" x="119.812" y="22.5312" width="366.703" height="266.578" filterUnits="userSpaceOnUse" color-interpolation-filters="sRGB">
<feFlood flood-opacity="0" result="BackgroundImageFix"/>
<feColorMatrix in="SourceAlpha" type="matrix" values="0 0 0 0 0 0 0 0 0 0 0 0 0 0 0 0 0 0 127 0" result="hardAlpha"/>
<feOffset/>
<feGaussianBlur stdDeviation="15"/>
<feComposite in2="hardAlpha" operator="out"/>
<feColorMatrix type="matrix" values="0 0 0 0 0.256833 0 0 0 0 0.241667 0 0 0 0 1 0 0 0 1 0"/>
<feBlend mode="normal" in2="BackgroundImageFix" result="effect1_dropShadow_394_3"/>
<feBlend mode="normal" in="SourceGraphic" in2="effect1_dropShadow_394_3" result="shape"/>
<feGaussianBlur stdDeviation="1" result="effect2_foregroundBlur_394_3"/>
</filter>
<filter id="filter1_f_394_3" x="141.812" y="46.5312" width="322.703" height="222.578" filterUnits="userSpaceOnUse" color-interpolation-filters="sRGB">
<feFlood flood-opacity="0" result="BackgroundImageFix"/>
<feBlend mode="normal" in="SourceGraphic" in2="BackgroundImageFix" result="shape"/>
<feGaussianBlur stdDeviation="4" result="effect1_foregroundBlur_394_3"/>
</filter>
</defs>
</svg>
