<svg width="600" height="235" viewBox="0 0 600 235" fill="none" xmlns="http://www.w3.org/2000/svg">
<g filter="url(#filter0_df_394_2)">
<path d="M70.0225 53.79C66.9558 53.79 64.6558 54.02 63.1225 54.48C61.7425 54.7867 60.5158 55.4767 59.4425 56.55C58.5225 57.47 57.6791 58.7733 56.9125 60.46C56.2991 61.9933 55.9925 63.45 55.9925 64.83L43.3425 64.6C43.6491 57.3933 45.9491 51.6433 50.2425 47.35C52.5425 45.2033 55.2258 43.67 58.2925 42.75C61.5125 41.6767 65.4991 41.0633 70.2525 40.91H170.762V53.79H83.8225V108.53H143.162V121.41H83.8225V198.23H70.0225V53.79ZM229.127 200.3C218.24 200.3 208.503 197.77 199.917 192.71C191.483 187.65 184.89 180.597 180.137 171.55C175.383 162.503 173.007 152.23 173.007 140.73C173.007 129.23 175.383 118.957 180.137 109.91C185.043 100.71 191.713 93.58 200.147 88.52C208.733 83.3067 218.47 80.7 229.357 80.7C240.09 80.7 249.673 83.3067 258.107 88.52C266.693 93.58 273.363 100.633 278.117 109.68C283.023 118.727 285.477 129 285.477 140.5C285.477 152 283.023 162.273 278.117 171.32C273.363 180.367 266.693 187.497 258.107 192.71C249.673 197.77 240.013 200.3 229.127 200.3ZM229.357 187.88C242.083 187.88 252.28 183.51 259.947 174.77C267.767 166.03 271.677 154.607 271.677 140.5C271.677 131.147 269.913 122.943 266.387 115.89C262.86 108.683 257.877 103.087 251.437 99.1C244.997 95.1133 237.637 93.12 229.357 93.12C220.923 93.12 213.487 95.1133 207.047 99.1C200.607 103.087 195.623 108.76 192.097 116.12C188.57 123.327 186.807 131.53 186.807 140.73C186.807 149.93 188.57 158.133 192.097 165.34C195.623 172.393 200.607 177.913 207.047 181.9C213.487 185.887 220.923 187.88 229.357 187.88ZM362.769 200.3C351.883 200.3 342.146 197.77 333.559 192.71C325.126 187.65 318.533 180.597 313.779 171.55C309.026 162.503 306.649 152.23 306.649 140.73C306.649 129.23 309.026 118.957 313.779 109.91C318.686 100.71 325.356 93.58 333.789 88.52C342.376 83.3067 352.113 80.7 362.999 80.7C373.733 80.7 383.316 83.3067 391.749 88.52C400.336 93.58 407.006 100.633 411.759 109.68C416.666 118.727 419.119 129 419.119 140.5C419.119 152 416.666 162.273 411.759 171.32C407.006 180.367 400.336 187.497 391.749 192.71C383.316 197.77 373.656 200.3 362.769 200.3ZM362.999 187.88C375.726 187.88 385.923 183.51 393.589 174.77C401.409 166.03 405.319 154.607 405.319 140.5C405.319 131.147 403.556 122.943 400.029 115.89C396.503 108.683 391.519 103.087 385.079 99.1C378.639 95.1133 371.279 93.12 362.999 93.12C354.566 93.12 347.129 95.1133 340.689 99.1C334.249 103.087 329.266 108.76 325.739 116.12C322.213 123.327 320.449 131.53 320.449 140.73C320.449 149.93 322.213 158.133 325.739 165.34C329.266 172.393 334.249 177.913 340.689 181.9C347.129 185.887 354.566 187.88 362.999 187.88ZM489.512 200.3C479.085 200.3 470.115 197.693 462.602 192.48C455.089 187.113 449.339 179.983 445.352 171.09C441.519 162.043 439.602 152.153 439.602 141.42C439.602 129.767 441.902 119.417 446.502 110.37C451.102 101.17 457.619 94.04 466.052 88.98C474.639 83.7667 484.682 81.16 496.182 81.16C499.709 81.16 504.155 81.39 509.522 81.85C514.889 82.1567 519.642 82.6167 523.782 83.23V30.79H537.582L537.352 178.22C537.352 181.287 538.042 183.663 539.422 185.35C540.955 186.883 542.795 187.65 544.942 187.65C547.702 187.65 549.925 186.347 551.612 183.74L561.502 191.56C559.202 194.78 556.595 197.003 553.682 198.23C550.922 199.61 547.702 200.3 544.022 200.3C538.655 200.3 533.902 198.46 529.762 194.78C525.775 191.1 523.782 186.653 523.782 181.44C520.102 187.573 515.272 192.25 509.292 195.47C503.465 198.69 496.872 200.3 489.512 200.3ZM490.202 187.88C496.949 187.88 502.929 186.27 508.142 183.05C513.509 179.83 517.649 175.307 520.562 169.48C522.709 165.187 523.782 160.28 523.782 154.76V95.42L518.952 94.73C511.745 93.6567 505.765 93.12 501.012 93.12C484.145 93.12 471.955 97.3367 464.442 105.77C457.082 114.05 453.402 125.397 453.402 139.81C453.402 153.61 456.622 165.11 463.062 174.31C469.655 183.357 478.702 187.88 490.202 187.88Z" fill="#3EF3FF"/>
<path d="M70.0225 53.79C66.9558 53.79 64.6558 54.02 63.1225 54.48C61.7425 54.7867 60.5158 55.4767 59.4425 56.55C58.5225 57.47 57.6791 58.7733 56.9125 60.46C56.2991 61.9933 55.9925 63.45 55.9925 64.83L43.3425 64.6C43.6491 57.3933 45.9491 51.6433 50.2425 47.35C52.5425 45.2033 55.2258 43.67 58.2925 42.75C61.5125 41.6767 65.4991 41.0633 70.2525 40.91H170.762V53.79H83.8225V108.53H143.162V121.41H83.8225V198.23H70.0225V53.79ZM229.127 200.3C218.24 200.3 208.503 197.77 199.917 192.71C191.483 187.65 184.89 180.597 180.137 171.55C175.383 162.503 173.007 152.23 173.007 140.73C173.007 129.23 175.383 118.957 180.137 109.91C185.043 100.71 191.713 93.58 200.147 88.52C208.733 83.3067 218.47 80.7 229.357 80.7C240.09 80.7 249.673 83.3067 258.107 88.52C266.693 93.58 273.363 100.633 278.117 109.68C283.023 118.727 285.477 129 285.477 140.5C285.477 152 283.023 162.273 278.117 171.32C273.363 180.367 266.693 187.497 258.107 192.71C249.673 197.77 240.013 200.3 229.127 200.3ZM229.357 187.88C242.083 187.88 252.28 183.51 259.947 174.77C267.767 166.03 271.677 154.607 271.677 140.5C271.677 131.147 269.913 122.943 266.387 115.89C262.86 108.683 257.877 103.087 251.437 99.1C244.997 95.1133 237.637 93.12 229.357 93.12C220.923 93.12 213.487 95.1133 207.047 99.1C200.607 103.087 195.623 108.76 192.097 116.12C188.57 123.327 186.807 131.53 186.807 140.73C186.807 149.93 188.57 158.133 192.097 165.34C195.623 172.393 200.607 177.913 207.047 181.9C213.487 185.887 220.923 187.88 229.357 187.88ZM362.769 200.3C351.883 200.3 342.146 197.77 333.559 192.71C325.126 187.65 318.533 180.597 313.779 171.55C309.026 162.503 306.649 152.23 306.649 140.73C306.649 129.23 309.026 118.957 313.779 109.91C318.686 100.71 325.356 93.58 333.789 88.52C342.376 83.3067 352.113 80.7 362.999 80.7C373.733 80.7 383.316 83.3067 391.749 88.52C400.336 93.58 407.006 100.633 411.759 109.68C416.666 118.727 419.119 129 419.119 140.5C419.119 152 416.666 162.273 411.759 171.32C407.006 180.367 400.336 187.497 391.749 192.71C383.316 197.77 373.656 200.3 362.769 200.3ZM362.999 187.88C375.726 187.88 385.923 183.51 393.589 174.77C401.409 166.03 405.319 154.607 405.319 140.5C405.319 131.147 403.556 122.943 400.029 115.89C396.503 108.683 391.519 103.087 385.079 99.1C378.639 95.1133 371.279 93.12 362.999 93.12C354.566 93.12 347.129 95.1133 340.689 99.1C334.249 103.087 329.266 108.76 325.739 116.12C322.213 123.327 320.449 131.53 320.449 140.73C320.449 149.93 322.213 158.133 325.739 165.34C329.266 172.393 334.249 177.913 340.689 181.9C347.129 185.887 354.566 187.88 362.999 187.88ZM489.512 200.3C479.085 200.3 470.115 197.693 462.602 192.48C455.089 187.113 449.339 179.983 445.352 171.09C441.519 162.043 439.602 152.153 439.602 141.42C439.602 129.767 441.902 119.417 446.502 110.37C451.102 101.17 457.619 94.04 466.052 88.98C474.639 83.7667 484.682 81.16 496.182 81.16C499.709 81.16 504.155 81.39 509.522 81.85C514.889 82.1567 519.642 82.6167 523.782 83.23V30.79H537.582L537.352 178.22C537.352 181.287 538.042 183.663 539.422 185.35C540.955 186.883 542.795 187.65 544.942 187.65C547.702 187.65 549.925 186.347 551.612 183.74L561.502 191.56C559.202 194.78 556.595 197.003 553.682 198.23C550.922 199.61 547.702 200.3 544.022 200.3C538.655 200.3 533.902 198.46 529.762 194.78C525.775 191.1 523.782 186.653 523.782 181.44C520.102 187.573 515.272 192.25 509.292 195.47C503.465 198.69 496.872 200.3 489.512 200.3ZM490.202 187.88C496.949 187.88 502.929 186.27 508.142 183.05C513.509 179.83 517.649 175.307 520.562 169.48C522.709 165.187 523.782 160.28 523.782 154.76V95.42L518.952 94.73C511.745 93.6567 505.765 93.12 501.012 93.12C484.145 93.12 471.955 97.3367 464.442 105.77C457.082 114.05 453.402 125.397 453.402 139.81C453.402 153.61 456.622 165.11 463.062 174.31C469.655 183.357 478.702 187.88 490.202 187.88Z" fill="#00FFF0"/>
</g>
<g filter="url(#filter1_f_394_2)">
<path d="M70.0225 53.79C66.9558 53.79 64.6558 54.02 63.1225 54.48C61.7425 54.7867 60.5158 55.4767 59.4425 56.55C58.5225 57.47 57.6791 58.7733 56.9125 60.46C56.2991 61.9933 55.9925 63.45 55.9925 64.83L43.3425 64.6C43.6491 57.3933 45.9491 51.6433 50.2425 47.35C52.5425 45.2033 55.2258 43.67 58.2925 42.75C61.5125 41.6767 65.4991 41.0633 70.2525 40.91H170.762V53.79H83.8225V108.53H143.162V121.41H83.8225V198.23H70.0225V53.79ZM229.127 200.3C218.24 200.3 208.503 197.77 199.917 192.71C191.483 187.65 184.89 180.597 180.137 171.55C175.383 162.503 173.007 152.23 173.007 140.73C173.007 129.23 175.383 118.957 180.137 109.91C185.043 100.71 191.713 93.58 200.147 88.52C208.733 83.3067 218.47 80.7 229.357 80.7C240.09 80.7 249.673 83.3067 258.107 88.52C266.693 93.58 273.363 100.633 278.117 109.68C283.023 118.727 285.477 129 285.477 140.5C285.477 152 283.023 162.273 278.117 171.32C273.363 180.367 266.693 187.497 258.107 192.71C249.673 197.77 240.013 200.3 229.127 200.3ZM229.357 187.88C242.083 187.88 252.28 183.51 259.947 174.77C267.767 166.03 271.677 154.607 271.677 140.5C271.677 131.147 269.913 122.943 266.387 115.89C262.86 108.683 257.877 103.087 251.437 99.1C244.997 95.1133 237.637 93.12 229.357 93.12C220.923 93.12 213.487 95.1133 207.047 99.1C200.607 103.087 195.623 108.76 192.097 116.12C188.57 123.327 186.807 131.53 186.807 140.73C186.807 149.93 188.57 158.133 192.097 165.34C195.623 172.393 200.607 177.913 207.047 181.9C213.487 185.887 220.923 187.88 229.357 187.88ZM362.769 200.3C351.883 200.3 342.146 197.77 333.559 192.71C325.126 187.65 318.533 180.597 313.779 171.55C309.026 162.503 306.649 152.23 306.649 140.73C306.649 129.23 309.026 118.957 313.779 109.91C318.686 100.71 325.356 93.58 333.789 88.52C342.376 83.3067 352.113 80.7 362.999 80.7C373.733 80.7 383.316 83.3067 391.749 88.52C400.336 93.58 407.006 100.633 411.759 109.68C416.666 118.727 419.119 129 419.119 140.5C419.119 152 416.666 162.273 411.759 171.32C407.006 180.367 400.336 187.497 391.749 192.71C383.316 197.77 373.656 200.3 362.769 200.3ZM362.999 187.88C375.726 187.88 385.923 183.51 393.589 174.77C401.409 166.03 405.319 154.607 405.319 140.5C405.319 131.147 403.556 122.943 400.029 115.89C396.503 108.683 391.519 103.087 385.079 99.1C378.639 95.1133 371.279 93.12 362.999 93.12C354.566 93.12 347.129 95.1133 340.689 99.1C334.249 103.087 329.266 108.76 325.739 116.12C322.213 123.327 320.449 131.53 320.449 140.73C320.449 149.93 322.213 158.133 325.739 165.34C329.266 172.393 334.249 177.913 340.689 181.9C347.129 185.887 354.566 187.88 362.999 187.88ZM489.512 200.3C479.085 200.3 470.115 197.693 462.602 192.48C455.089 187.113 449.339 179.983 445.352 171.09C441.519 162.043 439.602 152.153 439.602 141.42C439.602 129.767 441.902 119.417 446.502 110.37C451.102 101.17 457.619 94.04 466.052 88.98C474.639 83.7667 484.682 81.16 496.182 81.16C499.709 81.16 504.155 81.39 509.522 81.85C514.889 82.1567 519.642 82.6167 523.782 83.23V30.79H537.582L537.352 178.22C537.352 181.287 538.042 183.663 539.422 185.35C540.955 186.883 542.795 187.65 544.942 187.65C547.702 187.65 549.925 186.347 551.612 183.74L561.502 191.56C559.202 194.78 556.595 197.003 553.682 198.23C550.922 199.61 547.702 200.3 544.022 200.3C538.655 200.3 533.902 198.46 529.762 194.78C525.775 191.1 523.782 186.653 523.782 181.44C520.102 187.573 515.272 192.25 509.292 195.47C503.465 198.69 496.872 200.3 489.512 200.3ZM490.202 187.88C496.949 187.88 502.929 186.27 508.142 183.05C513.509 179.83 517.649 175.307 520.562 169.48C522.709 165.187 523.782 160.28 523.782 154.76V95.42L518.952 94.73C511.745 93.6567 505.765 93.12 501.012 93.12C484.145 93.12 471.955 97.3367 464.442 105.77C457.082 114.05 453.402 125.397 453.402 139.81C453.402 153.61 456.622 165.11 463.062 174.31C469.655 183.357 478.702 187.88 490.202 187.88Z" fill="white"/>
</g>
<defs>
<filter id="filter0_df_394_2" x="13.3424" y="0.790039" width="578.16" height="229.51" filterUnits="userSpaceOnUse" color-interpolation-filters="sRGB">
<feFlood flood-opacity="0" result="BackgroundImageFix"/>
<feColorMatrix in="SourceAlpha" type="matrix" values="0 0 0 0 0 0 0 0 0 0 0 0 0 0 0 0 0 0 127 0" result="hardAlpha"/>
<feOffset/>
<feGaussianBlur stdDeviation="15"/>
<feComposite in2="hardAlpha" operator="out"/>
<feColorMatrix type="matrix" values="0 0 0 0 0.241667 0 0 0 0 0.9545 0 0 0 0 1 0 0 0 1 0"/>
<feBlend mode="normal" in2="BackgroundImageFix" result="effect1_dropShadow_394_2"/>
<feBlend mode="normal" in="SourceGraphic" in2="effect1_dropShadow_394_2" result="shape"/>
<feGaussianBlur stdDeviation="1" result="effect2_foregroundBlur_394_2"/>
</filter>
<filter id="filter1_f_394_2" x="35.3424" y="22.79" width="534.16" height="185.51" filterUnits="userSpaceOnUse" color-interpolation-filters="sRGB">
<feFlood flood-opacity="0" result="BackgroundImageFix"/>
<feBlend mode="normal" in="SourceGraphic" in2="BackgroundImageFix" result="shape"/>
<feGaussianBlur stdDeviation="4" result="effect1_foregroundBlur_394_2"/>
</filter>
</defs>
</svg>
