<svg width="27" height="27" viewBox="0 0 27 27" fill="none" xmlns="http://www.w3.org/2000/svg">
<path d="M13.3508 8.90088C10.8987 8.90088 8.89754 10.902 8.89754 13.3542C8.89754 15.8063 10.8987 17.8075 13.3508 17.8075C15.803 17.8075 17.8041 15.8063 17.8041 13.3542C17.8041 10.902 15.803 8.90088 13.3508 8.90088ZM26.7073 13.3542C26.7073 11.51 26.724 9.68263 26.6205 7.84185C26.5169 5.70374 26.0292 3.80616 24.4657 2.24267C22.8988 0.675835 21.0046 0.191419 18.8665 0.0878544C17.0224 -0.0157103 15.1949 0.000993701 13.3542 0.000993701C11.51 0.000993701 9.68263 -0.0157103 7.84185 0.0878544C5.70374 0.191419 3.80616 0.679176 2.24267 2.24267C0.675835 3.8095 0.191419 5.70374 0.0878544 7.84185C-0.0157103 9.68597 0.000993701 11.5134 0.000993701 13.3542C0.000993701 15.1949 -0.0157103 17.0257 0.0878544 18.8665C0.191419 21.0046 0.679176 22.9022 2.24267 24.4657C3.8095 26.0325 5.70374 26.5169 7.84185 26.6205C9.68597 26.724 11.5134 26.7073 13.3542 26.7073C15.1983 26.7073 17.0257 26.724 18.8665 26.6205C21.0046 26.5169 22.9022 26.0292 24.4657 24.4657C26.0325 22.8988 26.5169 21.0046 26.6205 18.8665C26.7274 17.0257 26.7073 15.1983 26.7073 13.3542ZM13.3508 20.2061C9.55902 20.2061 6.49885 17.146 6.49885 13.3542C6.49885 9.56236 9.55902 6.50219 13.3508 6.50219C17.1426 6.50219 20.2028 9.56236 20.2028 13.3542C20.2028 17.146 17.1426 20.2061 13.3508 20.2061ZM20.4834 7.8218C19.5981 7.8218 18.8832 7.10687 18.8832 6.22156C18.8832 5.33625 19.5981 4.62132 20.4834 4.62132C21.3687 4.62132 22.0837 5.33625 22.0837 6.22156C22.0839 6.43178 22.0427 6.63999 21.9624 6.83426C21.8821 7.02853 21.7642 7.20504 21.6156 7.35369C21.4669 7.50234 21.2904 7.6202 21.0961 7.70053C20.9019 7.78086 20.6937 7.82207 20.4834 7.8218Z" fill="white"/>
</svg>
