<svg width="162" height="43" viewBox="0 0 162 43" fill="none" xmlns="http://www.w3.org/2000/svg">
<path fill-rule="evenodd" clip-rule="evenodd" d="M54.2978 30.4397C54.8661 28.0005 61.4815 11.5564 62.1135 8.84432C62.142 8.88525 62.1785 8.90401 62.1891 8.97413L62.4046 9.3757C62.557 9.69499 62.612 9.85613 62.7035 10.1055C62.8934 10.6245 62.9906 10.9679 63.1658 11.494L66.2268 19.7449C65.6677 20.1192 65.3518 20.5463 64.7872 20.9788L57.3332 27.7161C56.2686 28.6538 55.4601 29.6618 54.2978 30.4397ZM43.6029 42.5742C45.3215 42.5742 47.0425 42.5893 48.7592 42.5887C50.1325 42.5883 50.4366 42.243 51.9843 40.6721L65.491 28.2639C67.0947 27.0258 67.3889 26.0065 68.4891 25.9146C68.5546 26.699 72.9735 38.3844 73.708 40.4404C74.0071 41.2785 74.2594 41.7406 74.4534 42.574H80.8293L77.0007 32.0055C75.6634 28.1486 65.91 2.17197 65.4043 0H59.0284L51.2995 21.2708C50.9437 22.1912 50.6754 22.9655 50.364 23.8318L43.6027 42.5738L43.6029 42.5742Z" fill="white"/>
<path fill-rule="evenodd" clip-rule="evenodd" d="M134.51 30.8504C134.657 30.2167 135.136 28.9963 135.419 28.2637L142.325 9.255C142.354 9.29614 142.39 9.31489 142.401 9.3848C142.412 9.45514 142.462 9.48712 142.477 9.51525L142.915 10.5158C143.105 11.035 143.203 11.3784 143.378 11.9046L145.35 17.3365C145.741 18.3242 145.991 19.3098 146.439 20.1553L141.961 24.1105C141.436 24.6304 141.074 25.0797 140.505 25.5335L137.545 28.1264C136.481 29.064 135.672 30.072 134.51 30.85V30.8504ZM123.815 42.9851C125.533 42.9851 127.254 43.0004 128.971 42.9998C130.344 42.9992 130.648 42.6541 132.196 41.0828L145.703 28.675C147.306 27.4367 147.601 26.4174 148.701 26.3257C148.802 27.5449 154.184 40.9191 154.665 42.9849H161.041L157.212 32.4166C155.875 28.5595 146.122 2.58286 145.616 0.410889H139.24L123.815 42.9847L123.815 42.9851Z" fill="white"/>
<path fill-rule="evenodd" clip-rule="evenodd" d="M96.666 42.7797H103.247L113.041 16.1689C113.736 14.1636 118.77 1.3019 118.879 0H112.503L99.957 33.9356L94.5497 19.1873C93.647 16.8887 87.6963 0.955112 87.6168 0H81.0353L95.7567 39.987C96.0072 40.6352 96.6187 42.2063 96.6664 42.7795L96.666 42.7797Z" fill="white"/>
<path fill-rule="evenodd" clip-rule="evenodd" d="M0 34.5531C0.546722 34.5985 10.9251 37.262 11.5176 37.6382H0V42.9856H32.4962C32.4962 36.6799 33.894 37.976 26.2433 36.0756C23.9032 35.4943 21.8887 34.8788 19.5803 34.306C17.4442 33.7759 15.0164 33.1152 12.915 32.5386C11.7796 32.227 10.6716 32.0041 9.64192 31.6984C8.75181 31.4341 7.09438 30.9281 6.17018 30.8509V0.411621H0V34.5531Z" fill="white"/>
</svg>
