<svg width="285" height="163" viewBox="0 0 285 163" fill="none" xmlns="http://www.w3.org/2000/svg">
<path d="M214.037 44.9829H186.938L174.996 62.9266L188.086 82.2157L214.037 44.9829Z" fill="white"/>
<path d="M125.62 83.7859L141.237 63.1509L189.694 136.271H285L219.319 48.123L206.229 66.7394L243.203 116.533H202.784L155.246 44.9829H127.917L113.449 64.048L125.62 83.7859Z" fill="white"/>
<path d="M126.08 136.271H152.031L167.188 113.393L154.327 93.879L139.17 116.308L94.3875 44.9829H76.0154L0 136.271H28.2474L83.8234 69.2067L126.08 136.271Z" fill="white"/>
<path d="M86.3497 136.271L104.263 112.495L91.8613 92.7573L59.2504 136.271H86.3497Z" fill="white"/>
<path fill-rule="evenodd" clip-rule="evenodd" d="M122.689 25.9923C123.175 23.9095 128.824 9.86796 129.363 7.55213C129.388 7.58707 129.419 7.60309 129.428 7.66297L129.612 8.00586C129.742 8.27851 129.789 8.4161 129.867 8.62905C130.029 9.07223 130.112 9.36544 130.262 9.81463L132.876 16.8601C132.398 17.1797 132.128 17.5444 131.646 17.9137L125.281 23.6667C124.372 24.4673 123.682 25.328 122.689 25.9923ZM113.557 36.3539C115.025 36.3539 116.494 36.3668 117.96 36.3663C119.133 36.3659 119.392 36.0711 120.714 34.7297L132.247 24.1344C133.617 23.0772 133.868 22.2068 134.807 22.1284C134.863 22.7982 138.637 32.7762 139.264 34.5319C139.519 35.2475 139.735 35.6421 139.9 36.3537H145.345L142.075 27.3294C140.934 24.036 132.605 1.85463 132.173 0H126.729L120.129 18.163C119.825 18.9489 119.596 19.6102 119.33 20.3498L113.557 36.3535L113.557 36.3539Z" fill="white"/>
<path fill-rule="evenodd" clip-rule="evenodd" d="M191.182 26.3437C191.308 25.8026 191.717 24.7605 191.959 24.1349L197.856 7.9035C197.88 7.93863 197.911 7.95465 197.921 8.01435C197.93 8.07441 197.972 8.10171 197.985 8.12573L198.36 8.98007C198.522 9.42343 198.605 9.71664 198.754 10.166L200.439 14.8042C200.772 15.6476 200.986 16.4892 201.368 17.2113L197.545 20.5885C197.096 21.0325 196.787 21.4161 196.301 21.8036L193.774 24.0177C192.865 24.8183 192.175 25.679 191.182 26.3434V26.3437ZM182.05 36.7055C183.517 36.7055 184.987 36.7186 186.453 36.718C187.625 36.7175 187.885 36.4228 189.206 35.0811L200.74 24.4862C202.109 23.4287 202.36 22.5584 203.3 22.4801C203.387 23.5212 207.982 34.9413 208.393 36.7053H213.837L210.568 27.6811C209.426 24.3875 201.097 2.2062 200.666 0.351562H195.221L182.05 36.7051L182.05 36.7055Z" fill="white"/>
<path fill-rule="evenodd" clip-rule="evenodd" d="M158.868 36.5294H164.487L172.85 13.8066C173.444 12.0942 177.742 1.11169 177.835 0H172.391L161.678 28.9774L157.06 16.3839C156.29 14.4212 151.208 0.815565 151.141 0H145.521L158.091 34.1447C158.305 34.6982 158.827 36.0398 158.868 36.5292L158.868 36.5294Z" fill="white"/>
<path fill-rule="evenodd" clip-rule="evenodd" d="M76.3253 29.5048C76.7922 29.5436 85.6542 31.8179 86.1601 32.1391H76.3253V36.7053H104.074C104.074 31.3208 105.267 32.4276 98.7343 30.8049C96.7361 30.3085 95.016 29.7829 93.0449 29.2938C91.2208 28.8412 89.1478 28.277 87.3534 27.7847C86.3838 27.5186 85.4378 27.3282 84.5585 27.0672C83.7984 26.8415 82.3832 26.4094 81.594 26.3435V0.351562H76.3253V29.5048Z" fill="white"/>
<path d="M73.3893 157.563V141.287H78.3077L81.261 152.389L84.181 141.287H89.1105V157.563H86.0573V144.751L82.8265 157.563H79.6622L76.4425 144.751V157.563H73.3893ZM92.3746 157.563V141.287H104.443V144.04H95.661V147.648H103.832V150.391H95.661V154.821H104.754V157.563H92.3746ZM107.574 157.563V141.287H110.772L117.433 152.156V141.287H120.486V157.563H117.189L110.627 146.949V157.563H107.574ZM123.873 141.331H126.992V143.563C126.992 144.466 126.915 145.18 126.759 145.705C126.604 146.224 126.308 146.69 125.871 147.104C125.442 147.519 124.894 147.845 124.228 148.081L123.617 146.794C124.246 146.586 124.694 146.301 124.961 145.939C125.227 145.576 125.368 145.08 125.383 144.451H123.873V141.331ZM129.468 152.267L132.666 151.956C132.858 153.029 133.247 153.818 133.832 154.321C134.424 154.824 135.219 155.076 136.219 155.076C137.277 155.076 138.073 154.854 138.606 154.41C139.146 153.958 139.416 153.433 139.416 152.833C139.416 152.448 139.301 152.123 139.072 151.856C138.85 151.582 138.458 151.346 137.895 151.146C137.51 151.012 136.633 150.776 135.264 150.435C133.502 149.998 132.266 149.462 131.556 148.825C130.556 147.93 130.057 146.838 130.057 145.55C130.057 144.721 130.29 143.948 130.756 143.23C131.23 142.504 131.907 141.953 132.788 141.575C133.676 141.198 134.746 141.009 135.997 141.009C138.039 141.009 139.575 141.457 140.604 142.353C141.64 143.248 142.184 144.443 142.236 145.939L138.95 146.083C138.809 145.247 138.506 144.647 138.039 144.284C137.581 143.914 136.888 143.729 135.963 143.729C135.008 143.729 134.261 143.925 133.721 144.318C133.373 144.569 133.199 144.906 133.199 145.328C133.199 145.713 133.362 146.042 133.687 146.316C134.102 146.664 135.108 147.027 136.707 147.404C138.306 147.782 139.486 148.174 140.249 148.581C141.019 148.981 141.618 149.532 142.047 150.235C142.484 150.931 142.702 151.793 142.702 152.822C142.702 153.755 142.443 154.628 141.925 155.442C141.407 156.257 140.674 156.864 139.727 157.263C138.78 157.656 137.599 157.852 136.185 157.852C134.128 157.852 132.547 157.378 131.444 156.431C130.342 155.476 129.683 154.088 129.468 152.267Z" fill="white"/>
<path d="M166.721 151.637L169.908 152.647C169.419 154.424 168.605 155.745 167.465 156.611C166.333 157.469 164.893 157.899 163.146 157.899C160.985 157.899 159.209 157.162 157.817 155.689C156.426 154.209 155.73 152.188 155.73 149.627C155.73 146.918 156.429 144.816 157.828 143.321C159.227 141.818 161.066 141.067 163.346 141.067C165.337 141.067 166.954 141.656 168.198 142.833C168.938 143.528 169.493 144.527 169.863 145.83L166.61 146.607C166.418 145.764 166.014 145.097 165.4 144.609C164.793 144.12 164.053 143.876 163.18 143.876C161.973 143.876 160.992 144.309 160.237 145.175C159.49 146.041 159.116 147.444 159.116 149.383C159.116 151.441 159.486 152.906 160.226 153.78C160.966 154.653 161.929 155.09 163.113 155.09C163.986 155.09 164.738 154.812 165.367 154.257C165.996 153.702 166.447 152.828 166.721 151.637ZM172.828 157.621V141.478H176.114V154.879H184.286V157.621H172.828ZM186.617 141.345H189.903V150.16C189.903 151.559 189.944 152.466 190.026 152.88C190.166 153.546 190.499 154.083 191.025 154.49C191.558 154.89 192.283 155.09 193.201 155.09C194.133 155.09 194.837 154.901 195.31 154.523C195.784 154.139 196.069 153.669 196.165 153.113C196.261 152.558 196.31 151.637 196.31 150.349V141.345H199.596V149.894C199.596 151.848 199.507 153.228 199.329 154.035C199.152 154.842 198.822 155.523 198.341 156.078C197.868 156.633 197.231 157.077 196.432 157.41C195.632 157.736 194.589 157.899 193.301 157.899C191.746 157.899 190.566 157.721 189.759 157.366C188.96 157.003 188.327 156.537 187.861 155.967C187.394 155.389 187.087 154.786 186.939 154.157C186.724 153.224 186.617 151.848 186.617 150.027V141.345ZM203.082 141.345H209.588C210.876 141.345 211.835 141.4 212.464 141.511C213.1 141.615 213.667 141.837 214.162 142.177C214.666 142.518 215.084 142.973 215.417 143.543C215.75 144.106 215.917 144.738 215.917 145.442C215.917 146.204 215.709 146.903 215.295 147.54C214.888 148.177 214.333 148.654 213.63 148.972C214.621 149.261 215.384 149.753 215.917 150.449C216.45 151.145 216.716 151.962 216.716 152.903C216.716 153.643 216.542 154.364 216.194 155.068C215.854 155.763 215.384 156.322 214.784 156.744C214.192 157.158 213.459 157.414 212.586 157.51C212.038 157.569 210.717 157.606 208.622 157.621H203.082V141.345ZM206.368 144.054V147.818H208.522C209.803 147.818 210.599 147.799 210.909 147.762C211.472 147.695 211.912 147.503 212.231 147.185C212.556 146.859 212.719 146.433 212.719 145.908C212.719 145.405 212.579 144.997 212.297 144.687C212.023 144.368 211.613 144.176 211.065 144.109C210.739 144.072 209.803 144.054 208.256 144.054H206.368ZM206.368 150.527V154.879H209.411C210.595 154.879 211.346 154.845 211.664 154.779C212.153 154.69 212.549 154.475 212.852 154.135C213.163 153.787 213.319 153.324 213.319 152.747C213.319 152.259 213.2 151.844 212.963 151.504C212.727 151.163 212.382 150.915 211.931 150.76C211.487 150.604 210.517 150.527 209.022 150.527H206.368Z" fill="white"/>
</svg>
