<svg width="600" height="360" viewBox="0 0 600 360" fill="none" xmlns="http://www.w3.org/2000/svg">
<g filter="url(#filter0_d_394_4)">
<path d="M259.961 327.98C259.635 327.329 259.342 326.678 259.082 326.027C258.561 324.595 257.91 323.586 257.129 323C253.418 320.721 250.488 317.889 248.34 314.504C246.257 311.184 244.499 307.635 243.066 303.859C241.309 298.977 239.746 294.029 238.379 289.016C237.402 285.63 236.361 282.277 235.254 278.957C232.975 271.34 231.673 263.56 231.348 255.617C231.217 254.25 231.12 252.883 231.055 251.516C230.664 244.94 229.948 238.365 228.906 231.789C228.19 226.32 228.158 220.884 228.809 215.48C229.134 211.639 229.232 207.798 229.102 203.957C228.971 199.725 229.036 195.461 229.297 191.164C229.557 186.021 229.525 180.91 229.199 175.832C228.743 168.215 229.004 160.63 229.98 153.078C230.371 149.237 230.664 145.363 230.859 141.457C230.99 140.09 230.371 138.723 229.004 137.355C228.874 137.681 228.711 138.007 228.516 138.332C228.06 139.048 227.734 139.797 227.539 140.578C226.628 144.224 225.749 147.87 224.902 151.516C223.47 157.635 221.973 163.755 220.41 169.875C218.652 176.385 216.829 182.896 214.941 189.406C213.574 194.029 212.24 198.684 210.938 203.371C209.44 208.84 207.975 214.309 206.543 219.777C203.743 230.975 200.618 242.043 197.168 252.98C195.085 259.947 193.457 266.978 192.285 274.074C191.309 279.478 190.137 284.849 188.77 290.188C187.533 295.201 186.1 300.116 184.473 304.934C182.845 309.751 180.664 314.406 177.93 318.898C175.26 323.391 171.387 325.507 166.309 325.246C165.332 325.246 164.355 325.279 163.379 325.344C161.751 325.474 160.156 325.409 158.594 325.148C153.32 324.172 148.893 321.34 145.312 316.652C139.258 309.296 134.635 301.19 131.445 292.336C130.404 289.341 129.59 286.281 129.004 283.156C128.418 280.031 128.385 276.809 128.906 273.488C129.297 270.363 129.004 267.271 128.027 264.211C127.246 261.607 126.888 259.003 126.953 256.398C127.018 253.794 127.214 251.19 127.539 248.586C127.604 248.326 127.669 248.065 127.734 247.805C127.865 247.414 127.93 247.023 127.93 246.633C127.018 240.122 126.888 233.579 127.539 227.004C127.995 221.73 128.027 216.457 127.637 211.184C127.246 206.04 127.344 200.93 127.93 195.852C128.516 190.513 128.581 185.207 128.125 179.934C128.06 179.022 128.027 178.143 128.027 177.297C128.027 175.734 127.832 174.27 127.441 172.902C127.116 171.535 126.139 170.428 124.512 169.582C124.837 169.191 125.163 168.833 125.488 168.508C126.204 167.792 126.628 167.108 126.758 166.457C127.214 162.421 127.572 158.384 127.832 154.348C127.962 153.046 128.06 151.743 128.125 150.441C128.255 148.814 128.385 147.154 128.516 145.461C128.776 142.01 129.069 138.56 129.395 135.109C129.785 131.789 130.176 128.469 130.566 125.148C131.608 118.247 132.292 111.379 132.617 104.543C132.617 101.027 133.105 97.6419 134.082 94.3867C134.668 92.6289 134.766 90.8711 134.375 89.1133C133.594 86.1185 133.333 83.1888 133.594 80.3242C133.919 77.4596 134.375 74.5951 134.961 71.7305C135.091 70.8841 135.221 70.0378 135.352 69.1914C135.742 67.043 136.068 64.7969 136.328 62.4531C136.458 61.3464 136.621 60.207 136.816 59.0352C135.189 59.0352 133.822 59.3607 132.715 60.0117C131.673 60.6628 130.729 61.444 129.883 62.3555C129.753 62.4206 129.655 62.5182 129.59 62.6484C121.191 70.3307 113.737 78.8919 107.227 88.332C103.06 94.582 97.0378 97.9674 89.1602 98.4883C88.9648 98.4883 88.7695 98.4883 88.5742 98.4883C84.9935 98.7487 81.4453 98.7487 77.9297 98.4883C74.4141 98.2279 70.9961 97.1862 67.6758 95.3633C64.4206 93.7357 62.2396 91.3268 61.1328 88.1367C60.8724 87.1602 60.5143 86.151 60.0586 85.1094C59.4727 83.6771 58.9844 82.2122 58.5938 80.7148C58.2682 79.1523 58.3659 77.4596 58.8867 75.6367C59.3424 75.8971 59.7331 76.0924 60.0586 76.2227C60.7747 76.5482 61.4258 76.9062 62.0117 77.2969C68.1966 81.0078 74.6094 81.3984 81.25 78.4688C82.4219 78.013 83.6263 77.5573 84.8633 77.1016C86.7513 76.4505 88.6068 75.6693 90.4297 74.7578C92.1875 73.8464 93.6523 72.5768 94.8242 70.9492C97.7539 66.7174 101.009 62.8763 104.59 59.4258C108.236 55.9102 111.979 52.5573 115.82 49.3672C116.862 48.5208 117.871 47.6419 118.848 46.7305C122.168 43.8008 125.749 41.1966 129.59 38.918C134.993 35.793 140.755 36.1185 146.875 39.8945C151.432 42.4987 154.264 45.5586 155.371 49.0742C156.478 52.5898 156.608 56.5612 155.762 60.9883C155.697 61.5091 155.632 62.0299 155.566 62.5508C154.004 72.1211 152.637 81.7565 151.465 91.457C150.944 96.4701 150.553 101.516 150.293 106.594C150.163 109.523 150 112.453 149.805 115.383C149.479 119.419 149.121 123.423 148.73 127.395C147.949 135.207 147.396 143.02 147.07 150.832C146.745 160.142 146.615 169.419 146.68 178.664C146.68 184.393 146.615 190.122 146.484 195.852C146.289 206.724 145.996 217.596 145.605 228.469C145.41 230.422 145.605 232.147 146.191 233.645C146.842 235.142 148.438 236.216 150.977 236.867C147.201 237.583 145.41 239.699 145.605 243.215C145.41 250.572 145.573 257.928 146.094 265.285C146.615 272.577 147.786 279.836 149.609 287.062C150.065 288.951 150.456 290.904 150.781 292.922C151.172 295.591 151.758 298.195 152.539 300.734C153.646 303.664 154.948 306.464 156.445 309.133C157.096 310.37 157.715 311.574 158.301 312.746C162.077 311.965 164.486 310.956 165.527 309.719C166.569 308.547 167.188 306.105 167.383 302.395C167.448 301.743 167.643 301.125 167.969 300.539C170.312 295.917 172.168 291.132 173.535 286.184C174.967 281.301 176.204 276.353 177.246 271.34C178.092 267.434 179.036 263.527 180.078 259.621C181.25 255.064 182.357 250.441 183.398 245.754C184.375 241.717 185.352 237.681 186.328 233.645C189.128 222.967 191.992 212.29 194.922 201.613C195.443 199.79 195.964 197.967 196.484 196.145C198.112 190.09 199.805 184.068 201.562 178.078C206.706 161.281 211.882 144.484 217.09 127.688C220.28 116.555 224.577 105.812 229.98 95.4609C231.608 92.3359 232.91 89.0482 233.887 85.5977C234.342 84.1003 234.831 82.6354 235.352 81.2031C235.417 81.0078 235.449 80.8125 235.449 80.6172C235.449 80.487 235.449 80.3568 235.449 80.2266C235.449 80.0964 235.482 79.9987 235.547 79.9336C237.63 77.2643 239.03 74.4648 239.746 71.5352C240.527 68.5404 241.113 65.4805 241.504 62.3555C241.764 59.9466 242.155 57.5378 242.676 55.1289C243.392 51.7435 244.076 48.2604 244.727 44.6797C244.987 42.987 245.28 41.2943 245.605 39.6016C246.387 39.9922 247.135 40.3503 247.852 40.6758C249.414 41.3919 250.911 42.2057 252.344 43.1172C255.339 45.0052 257.324 47.3815 258.301 50.2461C259.277 53.0456 259.505 56.0404 258.984 59.2305C258.398 63.7878 257.878 68.3451 257.422 72.9023C256.706 82.3424 255.176 91.7174 252.832 101.027C251.79 105.389 251.107 109.849 250.781 114.406C250.651 115.448 250.553 116.49 250.488 117.531C250.293 119.159 250.098 120.819 249.902 122.512C248.796 132.147 247.884 141.815 247.168 151.516C246.452 163.495 245.964 175.507 245.703 187.551C245.638 191.522 245.703 195.461 245.898 199.367C245.964 201.06 246.029 202.72 246.094 204.348C246.224 209.621 246.322 214.927 246.387 220.266C246.582 233.742 247.005 247.219 247.656 260.695C248.242 267.01 249.512 273.26 251.465 279.445C251.725 280.357 251.986 281.268 252.246 282.18C253.288 285.826 254.492 289.406 255.859 292.922C256.706 295.201 257.52 297.512 258.301 299.855C258.822 301.483 259.245 303.143 259.57 304.836C259.831 306.008 260.091 307.18 260.352 308.352C260.742 310.044 261.328 311.607 262.109 313.039C262.956 314.471 264.323 315.383 266.211 315.773C268.294 316.164 270.312 316.099 272.266 315.578C274.219 315.122 275.814 314.016 277.051 312.258C277.832 311.086 278.646 309.947 279.492 308.84C280.794 307.212 281.966 305.52 283.008 303.762C284.049 302.069 284.701 300.116 284.961 297.902C285.286 296.079 285.97 294.289 287.012 292.531C287.142 292.271 287.272 292.043 287.402 291.848C288.9 288.462 289.421 284.979 288.965 281.398C288.9 279.706 288.932 277.98 289.062 276.223C289.128 275.637 289.193 275.018 289.258 274.367C289.258 273 289.388 271.698 289.648 270.461C289.974 269.159 290.723 267.987 291.895 266.945C292.09 266.75 292.22 266.49 292.285 266.164C292.35 265.839 292.415 265.513 292.48 265.188C292.48 264.927 292.513 264.667 292.578 264.406C292.969 262.323 293.359 260.24 293.75 258.156C295.573 248.716 297.363 239.276 299.121 229.836C299.186 229.38 299.316 228.892 299.512 228.371C299.902 227.525 300.065 226.711 300 225.93C300 225.083 299.382 224.302 298.145 223.586C297.949 223.456 297.884 223.13 297.949 222.609C298.079 222.023 298.242 221.372 298.438 220.656C298.633 219.875 298.828 219.191 299.023 218.605C300.13 214.764 301.302 210.923 302.539 207.082C303.255 204.803 303.939 202.525 304.59 200.246C305.566 197.967 305.534 195.591 304.492 193.117C304.232 192.661 304.102 192.076 304.102 191.359C304.102 190.643 304.167 189.992 304.297 189.406C304.427 188.755 304.622 188.365 304.883 188.234C306.641 187.453 307.747 186.444 308.203 185.207C308.659 183.905 308.952 182.538 309.082 181.105C309.147 180.129 309.277 179.152 309.473 178.176C311.165 172.121 312.826 166.034 314.453 159.914C316.797 151.19 319.173 142.434 321.582 133.645C322.493 130.52 323.503 127.46 324.609 124.465C325.195 122.837 325.749 121.242 326.27 119.68C326.335 119.549 326.367 119.419 326.367 119.289C326.758 118.312 326.986 117.368 327.051 116.457C327.116 115.48 327.083 114.504 326.953 113.527C326.693 111.509 326.888 109.751 327.539 108.254C328.06 107.408 328.711 106.594 329.492 105.812C330.664 104.641 331.608 103.241 332.324 101.613C333.105 99.1393 333.952 96.7305 334.863 94.3867C335.97 91.5872 336.979 88.8203 337.891 86.0859C338.151 84.9792 338.249 83.8398 338.184 82.668C338.184 82.082 338.216 81.4961 338.281 80.9102C338.281 80.7148 338.281 80.487 338.281 80.2266C338.281 79.8359 338.281 79.4779 338.281 79.1523C338.346 78.8268 338.477 78.599 338.672 78.4688C340.625 77.4271 342.025 76.0924 342.871 74.4648C343.783 72.8372 344.499 71.0794 345.02 69.1914C345.605 67.1732 346.387 65.2852 347.363 63.5273C349.186 60.5977 350.879 57.6029 352.441 54.543C353.678 52.069 355.013 49.6276 356.445 47.2188C359.18 42.7917 362.012 38.4297 364.941 34.1328C365.658 33.0911 366.374 32.0169 367.09 30.9102C367.741 29.9987 368.49 29.0547 369.336 28.0781C369.792 27.5573 370.28 26.9714 370.801 26.3203C372.689 28.0781 374.772 29.25 377.051 29.8359C379.395 30.4219 381.868 30.8125 384.473 31.0078C386.035 31.2031 387.63 31.3984 389.258 31.5938C388.477 32.7656 387.793 33.8073 387.207 34.7188C386.1 36.4115 385.124 37.9414 384.277 39.3086C382.715 41.6523 381.152 43.9635 379.59 46.2422C376.27 51.125 373.014 56.0729 369.824 61.0859C369.238 61.9323 368.652 62.8112 368.066 63.7227C364.746 68.6055 361.849 73.6836 359.375 78.957C358.724 80.4544 358.04 81.9518 357.324 83.4492C354.98 87.9414 353.223 92.7591 352.051 97.9023C351.204 101.613 349.74 105.227 347.656 108.742C346.289 111.151 345.117 113.625 344.141 116.164C341.797 122.609 339.648 129.12 337.695 135.695C336.654 139.081 335.579 142.499 334.473 145.949C334.017 147.316 333.496 148.684 332.91 150.051C332.194 151.809 331.576 153.566 331.055 155.324C328.06 165.806 325.358 176.32 322.949 186.867C320.54 197.414 318.815 208.091 317.773 218.898C316.992 225.995 316.048 233.059 314.941 240.09C314.225 244.973 313.542 249.855 312.891 254.738C312.565 260.012 311.426 265.122 309.473 270.07C308.757 272.023 308.561 274.172 308.887 276.516C308.952 277.427 308.984 278.306 308.984 279.152C308.984 279.934 309.049 280.747 309.18 281.594C309.44 283.026 309.44 284.393 309.18 285.695C308.919 286.672 308.659 287.648 308.398 288.625C306.641 295.852 304.525 302.98 302.051 310.012C299.382 317.824 294.531 324.074 287.5 328.762C282.617 332.082 277.344 332.701 271.68 330.617C268.88 329.576 266.081 328.892 263.281 328.566C262.109 328.371 261.003 328.176 259.961 327.98ZM335.156 118.703C334.049 118.638 333.105 118.866 332.324 119.387C331.543 119.842 331.185 120.721 331.25 122.023C331.38 122.74 331.738 123.521 332.324 124.367C332.585 124.758 332.845 125.181 333.105 125.637C333.366 125.311 333.594 125.018 333.789 124.758C335.026 123.065 336.068 121.665 336.914 120.559C336.849 120.493 336.816 120.428 336.816 120.363C336.165 119.712 335.579 119.094 335.059 118.508C336.947 116.164 337.891 114.602 337.891 113.82C337.956 112.974 337.044 112.225 335.156 111.574C335.156 113.853 335.156 116.229 335.156 118.703ZM325 143.312C325.846 142.727 326.66 142.141 327.441 141.555C328.288 140.969 329.297 140.285 330.469 139.504C330.534 139.504 330.599 139.471 330.664 139.406C328.841 139.341 327.539 139.374 326.758 139.504C325.977 139.569 325.488 139.895 325.293 140.48C325.098 141.066 325 142.01 325 143.312ZM350.488 173.684C352.897 173.618 355.046 174.204 356.934 175.441C358.822 176.613 360.612 178.013 362.305 179.641C363.086 180.357 363.867 181.008 364.648 181.594C365.299 182.31 365.625 183.449 365.625 185.012C365.625 186.509 365.527 187.941 365.332 189.309C364.616 194.452 363.867 199.595 363.086 204.738C361.914 212.616 360.872 220.493 359.961 228.371C358.984 238.918 358.171 249.432 357.52 259.914C357.259 264.602 356.966 269.257 356.641 273.879C356.576 274.595 356.51 275.344 356.445 276.125C356.38 276.451 356.348 276.776 356.348 277.102C350.098 280.292 345.247 278.762 341.797 272.512C340.951 271.014 340.169 269.549 339.453 268.117C339.062 267.466 338.704 266.815 338.379 266.164C338.574 264.992 338.737 263.82 338.867 262.648C339.193 259.849 339.648 257.115 340.234 254.445C340.43 253.273 340.43 252.069 340.234 250.832C340.039 249.465 340.072 248.195 340.332 247.023C340.527 245.852 341.439 244.94 343.066 244.289C342.09 241.685 341.699 239.211 341.895 236.867C342.025 234.458 342.383 232.082 342.969 229.738C343.49 227.264 343.848 224.693 344.043 222.023C344.694 222.805 345.215 223.488 345.605 224.074C346.061 224.595 346.549 225.246 347.07 226.027C347.331 223.944 347.656 221.958 348.047 220.07C348.958 215.839 349.284 211.802 349.023 207.961C348.438 202.883 348.372 197.805 348.828 192.727C349.219 188.495 349.609 184.165 350 179.738C350.13 177.785 350.293 175.767 350.488 173.684ZM374.805 131.008C375.456 131.529 375.944 132.342 376.27 133.449C376.66 134.491 376.79 135.467 376.66 136.379C375.423 143.345 374.056 150.376 372.559 157.473C372.103 159.882 371.615 162.355 371.094 164.895C368.164 165.09 365.918 164.96 364.355 164.504C362.793 164.048 361.426 162.909 360.254 161.086C359.082 159.198 357.65 156.268 355.957 152.297C358.105 150.083 358.887 147.154 358.301 143.508C357.975 140.643 358.268 137.648 359.18 134.523C359.505 133.156 359.766 131.789 359.961 130.422C360.156 128.859 360.384 127.167 360.645 125.344C360.775 124.432 360.905 123.423 361.035 122.316C362.402 123.163 363.737 123.977 365.039 124.758C368.424 126.711 371.68 128.794 374.805 131.008ZM406.25 233.938C406.185 232.831 406.152 231.724 406.152 230.617C405.501 230.812 404.948 230.845 404.492 230.715C404.102 230.52 404.102 230.031 404.492 229.25C406.25 225.669 408.105 222.089 410.059 218.508C410.775 217.141 411.491 215.773 412.207 214.406C414.355 213.755 415.951 212.681 416.992 211.184C418.099 209.686 418.978 208.091 419.629 206.398C420.28 204.706 421.094 203.176 422.07 201.809C421.81 201.353 421.549 200.93 421.289 200.539C420.964 200.083 420.703 199.693 420.508 199.367C420.312 198.977 420.28 198.651 420.41 198.391C421.452 195.656 422.721 193.052 424.219 190.578C426.497 186.542 428.809 182.57 431.152 178.664C432.064 177.102 432.975 175.539 433.887 173.977C437.598 172.544 441.146 172.121 444.531 172.707C447.982 173.293 451.465 174.237 454.98 175.539C456.022 175.865 457.096 176.223 458.203 176.613C457.943 177.72 457.682 178.794 457.422 179.836C456.836 182.049 456.283 184.23 455.762 186.379C454.655 190.285 453.581 194.224 452.539 198.195C449.87 208.482 447.005 218.736 443.945 228.957C441.992 236.379 440.918 243.898 440.723 251.516C440.658 252.557 440.592 253.599 440.527 254.641C440.332 257.766 440.397 260.956 440.723 264.211C440.788 265.448 440.853 266.717 440.918 268.02C440.983 268.605 441.081 269.191 441.211 269.777C441.276 270.298 441.341 270.819 441.406 271.34C441.602 272.967 441.536 274.53 441.211 276.027C440.951 277.525 440.007 278.664 438.379 279.445C436.882 280.031 435.482 279.999 434.18 279.348C432.878 278.697 431.673 277.883 430.566 276.906C430.111 276.516 429.688 276.158 429.297 275.832C427.865 274.79 426.628 273.651 425.586 272.414C425.065 271.763 424.642 271.047 424.316 270.266C423.991 269.419 423.828 268.573 423.828 267.727C423.958 258.026 424.186 248.033 424.512 237.746C424.577 234.556 424.642 231.268 424.707 227.883C424.056 229.315 423.405 230.65 422.754 231.887C421.452 234.556 420.215 237.03 419.043 239.309C416.895 243.28 414.746 247.219 412.598 251.125C411.426 253.273 410.286 255.422 409.18 257.57C408.659 258.482 408.138 259.393 407.617 260.305C406.25 262.714 404.98 265.155 403.809 267.629C402.572 270.363 401.139 272.023 399.512 272.609C397.949 273.195 395.671 273.26 392.676 272.805C390.527 272.544 388.607 271.926 386.914 270.949C385.286 269.973 383.691 268.898 382.129 267.727C380.632 266.62 379.069 265.578 377.441 264.602C377.116 264.406 376.79 264.016 376.465 263.43C376.139 262.779 375.944 262.16 375.879 261.574C375.749 260.923 375.781 260.402 375.977 260.012C377.604 256.887 378.516 253.599 378.711 250.148C378.971 247.805 379.46 245.526 380.176 243.312C380.241 243.117 380.404 242.954 380.664 242.824C380.859 242.629 381.12 242.466 381.445 242.336C381.706 242.206 381.934 242.076 382.129 241.945C380.176 247.219 379.753 253.111 380.859 259.621C381.185 258.189 381.51 256.854 381.836 255.617C382.422 253.143 382.975 250.799 383.496 248.586C383.822 246.763 384.212 244.908 384.668 243.02C385.905 238.332 386.719 233.645 387.109 228.957C387.37 223.944 388.053 219.029 389.16 214.211C389.681 211.477 390.169 208.742 390.625 206.008C390.625 205.617 390.527 205.259 390.332 204.934C390.137 204.543 389.876 204.152 389.551 203.762C389.29 203.371 389.03 202.98 388.77 202.59C388.574 202.199 388.477 201.809 388.477 201.418C388.346 198.228 388.346 195.038 388.477 191.848C388.542 189.113 388.574 186.411 388.574 183.742C388.444 181.464 388.216 179.087 387.891 176.613C387.76 175.441 387.63 174.204 387.5 172.902C388.021 172.967 388.509 173.033 388.965 173.098C390.007 173.228 390.983 173.423 391.895 173.684C393.522 174.204 395.117 174.725 396.68 175.246C397.786 175.637 398.893 176.027 400 176.418C402.799 177.264 404.622 178.501 405.469 180.129C406.38 181.691 406.543 184.035 405.957 187.16C404.59 194.712 403.223 202.264 401.855 209.816C400.163 219.387 398.47 228.957 396.777 238.527C396.777 238.658 396.745 238.755 396.68 238.82C396.354 240.318 396.289 241.75 396.484 243.117C397.201 245.982 398.828 246.6 401.367 244.973C401.367 244.973 401.335 244.973 401.27 244.973C401.27 244.908 401.27 244.875 401.27 244.875C401.27 244.875 401.237 244.875 401.172 244.875C401.172 244.81 401.172 244.777 401.172 244.777C401.042 245.754 400.879 246.698 400.684 247.609C400.553 248.521 400.391 249.432 400.195 250.344C401.823 248.521 403.255 246.633 404.492 244.68C405.729 242.661 406.478 240.415 406.738 237.941C406.673 237.421 406.608 236.9 406.543 236.379C406.478 235.533 406.38 234.719 406.25 233.938ZM421.582 204.836C423.079 204.641 424.674 203.827 426.367 202.395C428.06 200.962 429.167 199.595 429.688 198.293C430.078 197.121 430.599 195.917 431.25 194.68C431.51 194.159 431.803 193.573 432.129 192.922C430.957 192.596 430.013 192.629 429.297 193.02C428.581 193.345 427.897 193.801 427.246 194.387C426.855 194.842 426.432 195.233 425.977 195.559C425.521 195.819 425.033 195.982 424.512 196.047C424.707 197.87 424.772 199.237 424.707 200.148C424.642 200.995 424.382 201.743 423.926 202.395C423.47 203.046 422.689 203.859 421.582 204.836C421.387 205.552 421.159 206.268 420.898 206.984C420.312 208.677 419.727 210.37 419.141 212.062C418.815 212.909 418.685 213.658 418.75 214.309C418.88 214.96 419.629 215.383 420.996 215.578C422.038 213.885 422.656 212.16 422.852 210.402C423.112 208.579 422.689 206.724 421.582 204.836ZM431.738 219.68C431.152 219.549 430.566 219.419 429.98 219.289C429.72 220.461 429.492 221.665 429.297 222.902C428.971 224.53 428.646 226.158 428.32 227.785C428.516 227.785 428.743 227.818 429.004 227.883C429.264 227.948 429.525 228.013 429.785 228.078C430.436 225.279 431.087 222.479 431.738 219.68ZM513.867 230.617C519.466 233.677 524.935 236.672 530.273 239.602C529.883 240.839 529.557 242.01 529.297 243.117C528.776 245.526 527.962 247.674 526.855 249.562C522.819 256.203 518.327 262.518 513.379 268.508C510.189 271.893 506.413 274.53 502.051 276.418C499.447 277.525 496.908 277.753 494.434 277.102C492.025 276.451 489.844 275.148 487.891 273.195C487.565 272.87 487.207 272.544 486.816 272.219C484.082 269.615 481.478 266.913 479.004 264.113C476.595 261.314 474.577 258.156 472.949 254.641C470.996 250.474 469.499 246.242 468.457 241.945C467.48 237.648 467.253 233.124 467.773 228.371C468.88 218.475 471.387 209.068 475.293 200.148C477.246 195.917 479.688 192.076 482.617 188.625C485.547 185.109 488.672 181.789 491.992 178.664C493.62 177.297 495.605 176.255 497.949 175.539C498.991 175.148 500.065 174.693 501.172 174.172C500.586 173.26 500.098 172.512 499.707 171.926C499.772 171.796 499.837 171.665 499.902 171.535C500.098 171.275 500.293 171.079 500.488 170.949C505.566 168.28 510.775 167.954 516.113 169.973C518.457 171.014 520.605 172.414 522.559 174.172C523.991 175.539 525.326 177.036 526.562 178.664C526.953 179.185 527.376 179.706 527.832 180.227C530.632 183.742 532.031 187.355 532.031 191.066C532.031 194.712 530.469 198.13 527.344 201.32C522.786 205.943 517.871 210.109 512.598 213.82C507.324 217.531 501.497 220.363 495.117 222.316C493.164 222.772 490.983 222.87 488.574 222.609C487.337 222.479 486.068 222.414 484.766 222.414C480.794 231.464 479.98 241.327 482.324 252.004C482.78 254.087 483.984 255.617 485.938 256.594C487.956 257.57 490.137 257.668 492.48 256.887C496.777 255.454 500.521 253.436 503.711 250.832C506.901 248.163 509.115 244.452 510.352 239.699C510.807 237.941 511.523 236.053 512.5 234.035C512.891 232.993 513.346 231.854 513.867 230.617ZM516.797 185.793C500.326 190.285 492.057 198.098 491.992 209.23C492.253 208.775 492.513 208.319 492.773 207.863C493.88 205.78 495.052 204.12 496.289 202.883C497.526 201.646 499.121 201.483 501.074 202.395C501.986 201.809 502.832 201.288 503.613 200.832C505.111 199.921 506.38 199.042 507.422 198.195C507.943 197.805 508.464 197.414 508.984 197.023C509.896 196.372 510.71 195.721 511.426 195.07C512.142 194.419 512.598 193.736 512.793 193.02C513.184 191.001 514.16 189.048 515.723 187.16C516.048 186.77 516.406 186.314 516.797 185.793ZM497.461 209.816C500.911 209.556 503.906 208.514 506.445 206.691C509.049 204.868 510.514 202.753 510.84 200.344C509.603 201.19 508.366 202.036 507.129 202.883C504.134 205.031 500.911 207.342 497.461 209.816ZM493.652 210.598C493.001 210.988 492.383 211.346 491.797 211.672C490.169 212.714 488.737 213.592 487.5 214.309C487.63 214.309 487.76 214.341 487.891 214.406C488.802 214.732 489.681 214.96 490.527 215.09C491.374 215.155 492.09 214.895 492.676 214.309C493.262 213.658 493.587 212.421 493.652 210.598Z" fill="#FF0000"/>
<path d="M259.961 327.98C259.635 327.329 259.342 326.678 259.082 326.027C258.561 324.595 257.91 323.586 257.129 323C253.418 320.721 250.488 317.889 248.34 314.504C246.257 311.184 244.499 307.635 243.066 303.859C241.309 298.977 239.746 294.029 238.379 289.016C237.402 285.63 236.361 282.277 235.254 278.957C232.975 271.34 231.673 263.56 231.348 255.617C231.217 254.25 231.12 252.883 231.055 251.516C230.664 244.94 229.948 238.365 228.906 231.789C228.19 226.32 228.158 220.884 228.809 215.48C229.134 211.639 229.232 207.798 229.102 203.957C228.971 199.725 229.036 195.461 229.297 191.164C229.557 186.021 229.525 180.91 229.199 175.832C228.743 168.215 229.004 160.63 229.98 153.078C230.371 149.237 230.664 145.363 230.859 141.457C230.99 140.09 230.371 138.723 229.004 137.355C228.874 137.681 228.711 138.007 228.516 138.332C228.06 139.048 227.734 139.797 227.539 140.578C226.628 144.224 225.749 147.87 224.902 151.516C223.47 157.635 221.973 163.755 220.41 169.875C218.652 176.385 216.829 182.896 214.941 189.406C213.574 194.029 212.24 198.684 210.938 203.371C209.44 208.84 207.975 214.309 206.543 219.777C203.743 230.975 200.618 242.043 197.168 252.98C195.085 259.947 193.457 266.978 192.285 274.074C191.309 279.478 190.137 284.849 188.77 290.188C187.533 295.201 186.1 300.116 184.473 304.934C182.845 309.751 180.664 314.406 177.93 318.898C175.26 323.391 171.387 325.507 166.309 325.246C165.332 325.246 164.355 325.279 163.379 325.344C161.751 325.474 160.156 325.409 158.594 325.148C153.32 324.172 148.893 321.34 145.312 316.652C139.258 309.296 134.635 301.19 131.445 292.336C130.404 289.341 129.59 286.281 129.004 283.156C128.418 280.031 128.385 276.809 128.906 273.488C129.297 270.363 129.004 267.271 128.027 264.211C127.246 261.607 126.888 259.003 126.953 256.398C127.018 253.794 127.214 251.19 127.539 248.586C127.604 248.326 127.669 248.065 127.734 247.805C127.865 247.414 127.93 247.023 127.93 246.633C127.018 240.122 126.888 233.579 127.539 227.004C127.995 221.73 128.027 216.457 127.637 211.184C127.246 206.04 127.344 200.93 127.93 195.852C128.516 190.513 128.581 185.207 128.125 179.934C128.06 179.022 128.027 178.143 128.027 177.297C128.027 175.734 127.832 174.27 127.441 172.902C127.116 171.535 126.139 170.428 124.512 169.582C124.837 169.191 125.163 168.833 125.488 168.508C126.204 167.792 126.628 167.108 126.758 166.457C127.214 162.421 127.572 158.384 127.832 154.348C127.962 153.046 128.06 151.743 128.125 150.441C128.255 148.814 128.385 147.154 128.516 145.461C128.776 142.01 129.069 138.56 129.395 135.109C129.785 131.789 130.176 128.469 130.566 125.148C131.608 118.247 132.292 111.379 132.617 104.543C132.617 101.027 133.105 97.6419 134.082 94.3867C134.668 92.6289 134.766 90.8711 134.375 89.1133C133.594 86.1185 133.333 83.1888 133.594 80.3242C133.919 77.4596 134.375 74.5951 134.961 71.7305C135.091 70.8841 135.221 70.0378 135.352 69.1914C135.742 67.043 136.068 64.7969 136.328 62.4531C136.458 61.3464 136.621 60.207 136.816 59.0352C135.189 59.0352 133.822 59.3607 132.715 60.0117C131.673 60.6628 130.729 61.444 129.883 62.3555C129.753 62.4206 129.655 62.5182 129.59 62.6484C121.191 70.3307 113.737 78.8919 107.227 88.332C103.06 94.582 97.0378 97.9674 89.1602 98.4883C88.9648 98.4883 88.7695 98.4883 88.5742 98.4883C84.9935 98.7487 81.4453 98.7487 77.9297 98.4883C74.4141 98.2279 70.9961 97.1862 67.6758 95.3633C64.4206 93.7357 62.2396 91.3268 61.1328 88.1367C60.8724 87.1602 60.5143 86.151 60.0586 85.1094C59.4727 83.6771 58.9844 82.2122 58.5938 80.7148C58.2682 79.1523 58.3659 77.4596 58.8867 75.6367C59.3424 75.8971 59.7331 76.0924 60.0586 76.2227C60.7747 76.5482 61.4258 76.9062 62.0117 77.2969C68.1966 81.0078 74.6094 81.3984 81.25 78.4688C82.4219 78.013 83.6263 77.5573 84.8633 77.1016C86.7513 76.4505 88.6068 75.6693 90.4297 74.7578C92.1875 73.8464 93.6523 72.5768 94.8242 70.9492C97.7539 66.7174 101.009 62.8763 104.59 59.4258C108.236 55.9102 111.979 52.5573 115.82 49.3672C116.862 48.5208 117.871 47.6419 118.848 46.7305C122.168 43.8008 125.749 41.1966 129.59 38.918C134.993 35.793 140.755 36.1185 146.875 39.8945C151.432 42.4987 154.264 45.5586 155.371 49.0742C156.478 52.5898 156.608 56.5612 155.762 60.9883C155.697 61.5091 155.632 62.0299 155.566 62.5508C154.004 72.1211 152.637 81.7565 151.465 91.457C150.944 96.4701 150.553 101.516 150.293 106.594C150.163 109.523 150 112.453 149.805 115.383C149.479 119.419 149.121 123.423 148.73 127.395C147.949 135.207 147.396 143.02 147.07 150.832C146.745 160.142 146.615 169.419 146.68 178.664C146.68 184.393 146.615 190.122 146.484 195.852C146.289 206.724 145.996 217.596 145.605 228.469C145.41 230.422 145.605 232.147 146.191 233.645C146.842 235.142 148.438 236.216 150.977 236.867C147.201 237.583 145.41 239.699 145.605 243.215C145.41 250.572 145.573 257.928 146.094 265.285C146.615 272.577 147.786 279.836 149.609 287.062C150.065 288.951 150.456 290.904 150.781 292.922C151.172 295.591 151.758 298.195 152.539 300.734C153.646 303.664 154.948 306.464 156.445 309.133C157.096 310.37 157.715 311.574 158.301 312.746C162.077 311.965 164.486 310.956 165.527 309.719C166.569 308.547 167.188 306.105 167.383 302.395C167.448 301.743 167.643 301.125 167.969 300.539C170.312 295.917 172.168 291.132 173.535 286.184C174.967 281.301 176.204 276.353 177.246 271.34C178.092 267.434 179.036 263.527 180.078 259.621C181.25 255.064 182.357 250.441 183.398 245.754C184.375 241.717 185.352 237.681 186.328 233.645C189.128 222.967 191.992 212.29 194.922 201.613C195.443 199.79 195.964 197.967 196.484 196.145C198.112 190.09 199.805 184.068 201.562 178.078C206.706 161.281 211.882 144.484 217.09 127.688C220.28 116.555 224.577 105.812 229.98 95.4609C231.608 92.3359 232.91 89.0482 233.887 85.5977C234.342 84.1003 234.831 82.6354 235.352 81.2031C235.417 81.0078 235.449 80.8125 235.449 80.6172C235.449 80.487 235.449 80.3568 235.449 80.2266C235.449 80.0964 235.482 79.9987 235.547 79.9336C237.63 77.2643 239.03 74.4648 239.746 71.5352C240.527 68.5404 241.113 65.4805 241.504 62.3555C241.764 59.9466 242.155 57.5378 242.676 55.1289C243.392 51.7435 244.076 48.2604 244.727 44.6797C244.987 42.987 245.28 41.2943 245.605 39.6016C246.387 39.9922 247.135 40.3503 247.852 40.6758C249.414 41.3919 250.911 42.2057 252.344 43.1172C255.339 45.0052 257.324 47.3815 258.301 50.2461C259.277 53.0456 259.505 56.0404 258.984 59.2305C258.398 63.7878 257.878 68.3451 257.422 72.9023C256.706 82.3424 255.176 91.7174 252.832 101.027C251.79 105.389 251.107 109.849 250.781 114.406C250.651 115.448 250.553 116.49 250.488 117.531C250.293 119.159 250.098 120.819 249.902 122.512C248.796 132.147 247.884 141.815 247.168 151.516C246.452 163.495 245.964 175.507 245.703 187.551C245.638 191.522 245.703 195.461 245.898 199.367C245.964 201.06 246.029 202.72 246.094 204.348C246.224 209.621 246.322 214.927 246.387 220.266C246.582 233.742 247.005 247.219 247.656 260.695C248.242 267.01 249.512 273.26 251.465 279.445C251.725 280.357 251.986 281.268 252.246 282.18C253.288 285.826 254.492 289.406 255.859 292.922C256.706 295.201 257.52 297.512 258.301 299.855C258.822 301.483 259.245 303.143 259.57 304.836C259.831 306.008 260.091 307.18 260.352 308.352C260.742 310.044 261.328 311.607 262.109 313.039C262.956 314.471 264.323 315.383 266.211 315.773C268.294 316.164 270.312 316.099 272.266 315.578C274.219 315.122 275.814 314.016 277.051 312.258C277.832 311.086 278.646 309.947 279.492 308.84C280.794 307.212 281.966 305.52 283.008 303.762C284.049 302.069 284.701 300.116 284.961 297.902C285.286 296.079 285.97 294.289 287.012 292.531C287.142 292.271 287.272 292.043 287.402 291.848C288.9 288.462 289.421 284.979 288.965 281.398C288.9 279.706 288.932 277.98 289.062 276.223C289.128 275.637 289.193 275.018 289.258 274.367C289.258 273 289.388 271.698 289.648 270.461C289.974 269.159 290.723 267.987 291.895 266.945C292.09 266.75 292.22 266.49 292.285 266.164C292.35 265.839 292.415 265.513 292.48 265.188C292.48 264.927 292.513 264.667 292.578 264.406C292.969 262.323 293.359 260.24 293.75 258.156C295.573 248.716 297.363 239.276 299.121 229.836C299.186 229.38 299.316 228.892 299.512 228.371C299.902 227.525 300.065 226.711 300 225.93C300 225.083 299.382 224.302 298.145 223.586C297.949 223.456 297.884 223.13 297.949 222.609C298.079 222.023 298.242 221.372 298.438 220.656C298.633 219.875 298.828 219.191 299.023 218.605C300.13 214.764 301.302 210.923 302.539 207.082C303.255 204.803 303.939 202.525 304.59 200.246C305.566 197.967 305.534 195.591 304.492 193.117C304.232 192.661 304.102 192.076 304.102 191.359C304.102 190.643 304.167 189.992 304.297 189.406C304.427 188.755 304.622 188.365 304.883 188.234C306.641 187.453 307.747 186.444 308.203 185.207C308.659 183.905 308.952 182.538 309.082 181.105C309.147 180.129 309.277 179.152 309.473 178.176C311.165 172.121 312.826 166.034 314.453 159.914C316.797 151.19 319.173 142.434 321.582 133.645C322.493 130.52 323.503 127.46 324.609 124.465C325.195 122.837 325.749 121.242 326.27 119.68C326.335 119.549 326.367 119.419 326.367 119.289C326.758 118.312 326.986 117.368 327.051 116.457C327.116 115.48 327.083 114.504 326.953 113.527C326.693 111.509 326.888 109.751 327.539 108.254C328.06 107.408 328.711 106.594 329.492 105.812C330.664 104.641 331.608 103.241 332.324 101.613C333.105 99.1393 333.952 96.7305 334.863 94.3867C335.97 91.5872 336.979 88.8203 337.891 86.0859C338.151 84.9792 338.249 83.8398 338.184 82.668C338.184 82.082 338.216 81.4961 338.281 80.9102C338.281 80.7148 338.281 80.487 338.281 80.2266C338.281 79.8359 338.281 79.4779 338.281 79.1523C338.346 78.8268 338.477 78.599 338.672 78.4688C340.625 77.4271 342.025 76.0924 342.871 74.4648C343.783 72.8372 344.499 71.0794 345.02 69.1914C345.605 67.1732 346.387 65.2852 347.363 63.5273C349.186 60.5977 350.879 57.6029 352.441 54.543C353.678 52.069 355.013 49.6276 356.445 47.2188C359.18 42.7917 362.012 38.4297 364.941 34.1328C365.658 33.0911 366.374 32.0169 367.09 30.9102C367.741 29.9987 368.49 29.0547 369.336 28.0781C369.792 27.5573 370.28 26.9714 370.801 26.3203C372.689 28.0781 374.772 29.25 377.051 29.8359C379.395 30.4219 381.868 30.8125 384.473 31.0078C386.035 31.2031 387.63 31.3984 389.258 31.5938C388.477 32.7656 387.793 33.8073 387.207 34.7188C386.1 36.4115 385.124 37.9414 384.277 39.3086C382.715 41.6523 381.152 43.9635 379.59 46.2422C376.27 51.125 373.014 56.0729 369.824 61.0859C369.238 61.9323 368.652 62.8112 368.066 63.7227C364.746 68.6055 361.849 73.6836 359.375 78.957C358.724 80.4544 358.04 81.9518 357.324 83.4492C354.98 87.9414 353.223 92.7591 352.051 97.9023C351.204 101.613 349.74 105.227 347.656 108.742C346.289 111.151 345.117 113.625 344.141 116.164C341.797 122.609 339.648 129.12 337.695 135.695C336.654 139.081 335.579 142.499 334.473 145.949C334.017 147.316 333.496 148.684 332.91 150.051C332.194 151.809 331.576 153.566 331.055 155.324C328.06 165.806 325.358 176.32 322.949 186.867C320.54 197.414 318.815 208.091 317.773 218.898C316.992 225.995 316.048 233.059 314.941 240.09C314.225 244.973 313.542 249.855 312.891 254.738C312.565 260.012 311.426 265.122 309.473 270.07C308.757 272.023 308.561 274.172 308.887 276.516C308.952 277.427 308.984 278.306 308.984 279.152C308.984 279.934 309.049 280.747 309.18 281.594C309.44 283.026 309.44 284.393 309.18 285.695C308.919 286.672 308.659 287.648 308.398 288.625C306.641 295.852 304.525 302.98 302.051 310.012C299.382 317.824 294.531 324.074 287.5 328.762C282.617 332.082 277.344 332.701 271.68 330.617C268.88 329.576 266.081 328.892 263.281 328.566C262.109 328.371 261.003 328.176 259.961 327.98ZM335.156 118.703C334.049 118.638 333.105 118.866 332.324 119.387C331.543 119.842 331.185 120.721 331.25 122.023C331.38 122.74 331.738 123.521 332.324 124.367C332.585 124.758 332.845 125.181 333.105 125.637C333.366 125.311 333.594 125.018 333.789 124.758C335.026 123.065 336.068 121.665 336.914 120.559C336.849 120.493 336.816 120.428 336.816 120.363C336.165 119.712 335.579 119.094 335.059 118.508C336.947 116.164 337.891 114.602 337.891 113.82C337.956 112.974 337.044 112.225 335.156 111.574C335.156 113.853 335.156 116.229 335.156 118.703ZM325 143.312C325.846 142.727 326.66 142.141 327.441 141.555C328.288 140.969 329.297 140.285 330.469 139.504C330.534 139.504 330.599 139.471 330.664 139.406C328.841 139.341 327.539 139.374 326.758 139.504C325.977 139.569 325.488 139.895 325.293 140.48C325.098 141.066 325 142.01 325 143.312ZM350.488 173.684C352.897 173.618 355.046 174.204 356.934 175.441C358.822 176.613 360.612 178.013 362.305 179.641C363.086 180.357 363.867 181.008 364.648 181.594C365.299 182.31 365.625 183.449 365.625 185.012C365.625 186.509 365.527 187.941 365.332 189.309C364.616 194.452 363.867 199.595 363.086 204.738C361.914 212.616 360.872 220.493 359.961 228.371C358.984 238.918 358.171 249.432 357.52 259.914C357.259 264.602 356.966 269.257 356.641 273.879C356.576 274.595 356.51 275.344 356.445 276.125C356.38 276.451 356.348 276.776 356.348 277.102C350.098 280.292 345.247 278.762 341.797 272.512C340.951 271.014 340.169 269.549 339.453 268.117C339.062 267.466 338.704 266.815 338.379 266.164C338.574 264.992 338.737 263.82 338.867 262.648C339.193 259.849 339.648 257.115 340.234 254.445C340.43 253.273 340.43 252.069 340.234 250.832C340.039 249.465 340.072 248.195 340.332 247.023C340.527 245.852 341.439 244.94 343.066 244.289C342.09 241.685 341.699 239.211 341.895 236.867C342.025 234.458 342.383 232.082 342.969 229.738C343.49 227.264 343.848 224.693 344.043 222.023C344.694 222.805 345.215 223.488 345.605 224.074C346.061 224.595 346.549 225.246 347.07 226.027C347.331 223.944 347.656 221.958 348.047 220.07C348.958 215.839 349.284 211.802 349.023 207.961C348.438 202.883 348.372 197.805 348.828 192.727C349.219 188.495 349.609 184.165 350 179.738C350.13 177.785 350.293 175.767 350.488 173.684ZM374.805 131.008C375.456 131.529 375.944 132.342 376.27 133.449C376.66 134.491 376.79 135.467 376.66 136.379C375.423 143.345 374.056 150.376 372.559 157.473C372.103 159.882 371.615 162.355 371.094 164.895C368.164 165.09 365.918 164.96 364.355 164.504C362.793 164.048 361.426 162.909 360.254 161.086C359.082 159.198 357.65 156.268 355.957 152.297C358.105 150.083 358.887 147.154 358.301 143.508C357.975 140.643 358.268 137.648 359.18 134.523C359.505 133.156 359.766 131.789 359.961 130.422C360.156 128.859 360.384 127.167 360.645 125.344C360.775 124.432 360.905 123.423 361.035 122.316C362.402 123.163 363.737 123.977 365.039 124.758C368.424 126.711 371.68 128.794 374.805 131.008ZM406.25 233.938C406.185 232.831 406.152 231.724 406.152 230.617C405.501 230.812 404.948 230.845 404.492 230.715C404.102 230.52 404.102 230.031 404.492 229.25C406.25 225.669 408.105 222.089 410.059 218.508C410.775 217.141 411.491 215.773 412.207 214.406C414.355 213.755 415.951 212.681 416.992 211.184C418.099 209.686 418.978 208.091 419.629 206.398C420.28 204.706 421.094 203.176 422.07 201.809C421.81 201.353 421.549 200.93 421.289 200.539C420.964 200.083 420.703 199.693 420.508 199.367C420.312 198.977 420.28 198.651 420.41 198.391C421.452 195.656 422.721 193.052 424.219 190.578C426.497 186.542 428.809 182.57 431.152 178.664C432.064 177.102 432.975 175.539 433.887 173.977C437.598 172.544 441.146 172.121 444.531 172.707C447.982 173.293 451.465 174.237 454.98 175.539C456.022 175.865 457.096 176.223 458.203 176.613C457.943 177.72 457.682 178.794 457.422 179.836C456.836 182.049 456.283 184.23 455.762 186.379C454.655 190.285 453.581 194.224 452.539 198.195C449.87 208.482 447.005 218.736 443.945 228.957C441.992 236.379 440.918 243.898 440.723 251.516C440.658 252.557 440.592 253.599 440.527 254.641C440.332 257.766 440.397 260.956 440.723 264.211C440.788 265.448 440.853 266.717 440.918 268.02C440.983 268.605 441.081 269.191 441.211 269.777C441.276 270.298 441.341 270.819 441.406 271.34C441.602 272.967 441.536 274.53 441.211 276.027C440.951 277.525 440.007 278.664 438.379 279.445C436.882 280.031 435.482 279.999 434.18 279.348C432.878 278.697 431.673 277.883 430.566 276.906C430.111 276.516 429.688 276.158 429.297 275.832C427.865 274.79 426.628 273.651 425.586 272.414C425.065 271.763 424.642 271.047 424.316 270.266C423.991 269.419 423.828 268.573 423.828 267.727C423.958 258.026 424.186 248.033 424.512 237.746C424.577 234.556 424.642 231.268 424.707 227.883C424.056 229.315 423.405 230.65 422.754 231.887C421.452 234.556 420.215 237.03 419.043 239.309C416.895 243.28 414.746 247.219 412.598 251.125C411.426 253.273 410.286 255.422 409.18 257.57C408.659 258.482 408.138 259.393 407.617 260.305C406.25 262.714 404.98 265.155 403.809 267.629C402.572 270.363 401.139 272.023 399.512 272.609C397.949 273.195 395.671 273.26 392.676 272.805C390.527 272.544 388.607 271.926 386.914 270.949C385.286 269.973 383.691 268.898 382.129 267.727C380.632 266.62 379.069 265.578 377.441 264.602C377.116 264.406 376.79 264.016 376.465 263.43C376.139 262.779 375.944 262.16 375.879 261.574C375.749 260.923 375.781 260.402 375.977 260.012C377.604 256.887 378.516 253.599 378.711 250.148C378.971 247.805 379.46 245.526 380.176 243.312C380.241 243.117 380.404 242.954 380.664 242.824C380.859 242.629 381.12 242.466 381.445 242.336C381.706 242.206 381.934 242.076 382.129 241.945C380.176 247.219 379.753 253.111 380.859 259.621C381.185 258.189 381.51 256.854 381.836 255.617C382.422 253.143 382.975 250.799 383.496 248.586C383.822 246.763 384.212 244.908 384.668 243.02C385.905 238.332 386.719 233.645 387.109 228.957C387.37 223.944 388.053 219.029 389.16 214.211C389.681 211.477 390.169 208.742 390.625 206.008C390.625 205.617 390.527 205.259 390.332 204.934C390.137 204.543 389.876 204.152 389.551 203.762C389.29 203.371 389.03 202.98 388.77 202.59C388.574 202.199 388.477 201.809 388.477 201.418C388.346 198.228 388.346 195.038 388.477 191.848C388.542 189.113 388.574 186.411 388.574 183.742C388.444 181.464 388.216 179.087 387.891 176.613C387.76 175.441 387.63 174.204 387.5 172.902C388.021 172.967 388.509 173.033 388.965 173.098C390.007 173.228 390.983 173.423 391.895 173.684C393.522 174.204 395.117 174.725 396.68 175.246C397.786 175.637 398.893 176.027 400 176.418C402.799 177.264 404.622 178.501 405.469 180.129C406.38 181.691 406.543 184.035 405.957 187.16C404.59 194.712 403.223 202.264 401.855 209.816C400.163 219.387 398.47 228.957 396.777 238.527C396.777 238.658 396.745 238.755 396.68 238.82C396.354 240.318 396.289 241.75 396.484 243.117C397.201 245.982 398.828 246.6 401.367 244.973C401.367 244.973 401.335 244.973 401.27 244.973C401.27 244.908 401.27 244.875 401.27 244.875C401.27 244.875 401.237 244.875 401.172 244.875C401.172 244.81 401.172 244.777 401.172 244.777C401.042 245.754 400.879 246.698 400.684 247.609C400.553 248.521 400.391 249.432 400.195 250.344C401.823 248.521 403.255 246.633 404.492 244.68C405.729 242.661 406.478 240.415 406.738 237.941C406.673 237.421 406.608 236.9 406.543 236.379C406.478 235.533 406.38 234.719 406.25 233.938ZM421.582 204.836C423.079 204.641 424.674 203.827 426.367 202.395C428.06 200.962 429.167 199.595 429.688 198.293C430.078 197.121 430.599 195.917 431.25 194.68C431.51 194.159 431.803 193.573 432.129 192.922C430.957 192.596 430.013 192.629 429.297 193.02C428.581 193.345 427.897 193.801 427.246 194.387C426.855 194.842 426.432 195.233 425.977 195.559C425.521 195.819 425.033 195.982 424.512 196.047C424.707 197.87 424.772 199.237 424.707 200.148C424.642 200.995 424.382 201.743 423.926 202.395C423.47 203.046 422.689 203.859 421.582 204.836C421.387 205.552 421.159 206.268 420.898 206.984C420.312 208.677 419.727 210.37 419.141 212.062C418.815 212.909 418.685 213.658 418.75 214.309C418.88 214.96 419.629 215.383 420.996 215.578C422.038 213.885 422.656 212.16 422.852 210.402C423.112 208.579 422.689 206.724 421.582 204.836ZM431.738 219.68C431.152 219.549 430.566 219.419 429.98 219.289C429.72 220.461 429.492 221.665 429.297 222.902C428.971 224.53 428.646 226.158 428.32 227.785C428.516 227.785 428.743 227.818 429.004 227.883C429.264 227.948 429.525 228.013 429.785 228.078C430.436 225.279 431.087 222.479 431.738 219.68ZM513.867 230.617C519.466 233.677 524.935 236.672 530.273 239.602C529.883 240.839 529.557 242.01 529.297 243.117C528.776 245.526 527.962 247.674 526.855 249.562C522.819 256.203 518.327 262.518 513.379 268.508C510.189 271.893 506.413 274.53 502.051 276.418C499.447 277.525 496.908 277.753 494.434 277.102C492.025 276.451 489.844 275.148 487.891 273.195C487.565 272.87 487.207 272.544 486.816 272.219C484.082 269.615 481.478 266.913 479.004 264.113C476.595 261.314 474.577 258.156 472.949 254.641C470.996 250.474 469.499 246.242 468.457 241.945C467.48 237.648 467.253 233.124 467.773 228.371C468.88 218.475 471.387 209.068 475.293 200.148C477.246 195.917 479.688 192.076 482.617 188.625C485.547 185.109 488.672 181.789 491.992 178.664C493.62 177.297 495.605 176.255 497.949 175.539C498.991 175.148 500.065 174.693 501.172 174.172C500.586 173.26 500.098 172.512 499.707 171.926C499.772 171.796 499.837 171.665 499.902 171.535C500.098 171.275 500.293 171.079 500.488 170.949C505.566 168.28 510.775 167.954 516.113 169.973C518.457 171.014 520.605 172.414 522.559 174.172C523.991 175.539 525.326 177.036 526.562 178.664C526.953 179.185 527.376 179.706 527.832 180.227C530.632 183.742 532.031 187.355 532.031 191.066C532.031 194.712 530.469 198.13 527.344 201.32C522.786 205.943 517.871 210.109 512.598 213.82C507.324 217.531 501.497 220.363 495.117 222.316C493.164 222.772 490.983 222.87 488.574 222.609C487.337 222.479 486.068 222.414 484.766 222.414C480.794 231.464 479.98 241.327 482.324 252.004C482.78 254.087 483.984 255.617 485.938 256.594C487.956 257.57 490.137 257.668 492.48 256.887C496.777 255.454 500.521 253.436 503.711 250.832C506.901 248.163 509.115 244.452 510.352 239.699C510.807 237.941 511.523 236.053 512.5 234.035C512.891 232.993 513.346 231.854 513.867 230.617ZM516.797 185.793C500.326 190.285 492.057 198.098 491.992 209.23C492.253 208.775 492.513 208.319 492.773 207.863C493.88 205.78 495.052 204.12 496.289 202.883C497.526 201.646 499.121 201.483 501.074 202.395C501.986 201.809 502.832 201.288 503.613 200.832C505.111 199.921 506.38 199.042 507.422 198.195C507.943 197.805 508.464 197.414 508.984 197.023C509.896 196.372 510.71 195.721 511.426 195.07C512.142 194.419 512.598 193.736 512.793 193.02C513.184 191.001 514.16 189.048 515.723 187.16C516.048 186.77 516.406 186.314 516.797 185.793ZM497.461 209.816C500.911 209.556 503.906 208.514 506.445 206.691C509.049 204.868 510.514 202.753 510.84 200.344C509.603 201.19 508.366 202.036 507.129 202.883C504.134 205.031 500.911 207.342 497.461 209.816ZM493.652 210.598C493.001 210.988 492.383 211.346 491.797 211.672C490.169 212.714 488.737 213.592 487.5 214.309C487.63 214.309 487.76 214.341 487.891 214.406C488.802 214.732 489.681 214.96 490.527 215.09C491.374 215.155 492.09 214.895 492.676 214.309C493.262 213.658 493.587 212.421 493.652 210.598Z" fill="#FF004D"/>
</g>
<g filter="url(#filter1_f_394_4)">
<path d="M259.961 327.98C259.635 327.329 259.342 326.678 259.082 326.027C258.561 324.595 257.91 323.586 257.129 323C253.418 320.721 250.488 317.889 248.34 314.504C246.257 311.184 244.499 307.635 243.066 303.859C241.309 298.977 239.746 294.029 238.379 289.016C237.402 285.63 236.361 282.277 235.254 278.957C232.975 271.34 231.673 263.56 231.348 255.617C231.217 254.25 231.12 252.883 231.055 251.516C230.664 244.94 229.948 238.365 228.906 231.789C228.19 226.32 228.158 220.884 228.809 215.48C229.134 211.639 229.232 207.798 229.102 203.957C228.971 199.725 229.036 195.461 229.297 191.164C229.557 186.021 229.525 180.91 229.199 175.832C228.743 168.215 229.004 160.63 229.98 153.078C230.371 149.237 230.664 145.363 230.859 141.457C230.99 140.09 230.371 138.723 229.004 137.355C228.874 137.681 228.711 138.007 228.516 138.332C228.06 139.048 227.734 139.797 227.539 140.578C226.628 144.224 225.749 147.87 224.902 151.516C223.47 157.635 221.973 163.755 220.41 169.875C218.652 176.385 216.829 182.896 214.941 189.406C213.574 194.029 212.24 198.684 210.938 203.371C209.44 208.84 207.975 214.309 206.543 219.777C203.743 230.975 200.618 242.043 197.168 252.98C195.085 259.947 193.457 266.978 192.285 274.074C191.309 279.478 190.137 284.849 188.77 290.188C187.533 295.201 186.1 300.116 184.473 304.934C182.845 309.751 180.664 314.406 177.93 318.898C175.26 323.391 171.387 325.507 166.309 325.246C165.332 325.246 164.355 325.279 163.379 325.344C161.751 325.474 160.156 325.409 158.594 325.148C153.32 324.172 148.893 321.34 145.312 316.652C139.258 309.296 134.635 301.19 131.445 292.336C130.404 289.341 129.59 286.281 129.004 283.156C128.418 280.031 128.385 276.809 128.906 273.488C129.297 270.363 129.004 267.271 128.027 264.211C127.246 261.607 126.888 259.003 126.953 256.398C127.018 253.794 127.214 251.19 127.539 248.586C127.604 248.326 127.669 248.065 127.734 247.805C127.865 247.414 127.93 247.023 127.93 246.633C127.018 240.122 126.888 233.579 127.539 227.004C127.995 221.73 128.027 216.457 127.637 211.184C127.246 206.04 127.344 200.93 127.93 195.852C128.516 190.513 128.581 185.207 128.125 179.934C128.06 179.022 128.027 178.143 128.027 177.297C128.027 175.734 127.832 174.27 127.441 172.902C127.116 171.535 126.139 170.428 124.512 169.582C124.837 169.191 125.163 168.833 125.488 168.508C126.204 167.792 126.628 167.108 126.758 166.457C127.214 162.421 127.572 158.384 127.832 154.348C127.962 153.046 128.06 151.743 128.125 150.441C128.255 148.814 128.385 147.154 128.516 145.461C128.776 142.01 129.069 138.56 129.395 135.109C129.785 131.789 130.176 128.469 130.566 125.148C131.608 118.247 132.292 111.379 132.617 104.543C132.617 101.027 133.105 97.6419 134.082 94.3867C134.668 92.6289 134.766 90.8711 134.375 89.1133C133.594 86.1185 133.333 83.1888 133.594 80.3242C133.919 77.4596 134.375 74.5951 134.961 71.7305C135.091 70.8841 135.221 70.0378 135.352 69.1914C135.742 67.043 136.068 64.7969 136.328 62.4531C136.458 61.3464 136.621 60.207 136.816 59.0352C135.189 59.0352 133.822 59.3607 132.715 60.0117C131.673 60.6628 130.729 61.444 129.883 62.3555C129.753 62.4206 129.655 62.5182 129.59 62.6484C121.191 70.3307 113.737 78.8919 107.227 88.332C103.06 94.582 97.0378 97.9674 89.1602 98.4883C88.9648 98.4883 88.7695 98.4883 88.5742 98.4883C84.9935 98.7487 81.4453 98.7487 77.9297 98.4883C74.4141 98.2279 70.9961 97.1862 67.6758 95.3633C64.4206 93.7357 62.2396 91.3268 61.1328 88.1367C60.8724 87.1602 60.5143 86.151 60.0586 85.1094C59.4727 83.6771 58.9844 82.2122 58.5938 80.7148C58.2682 79.1523 58.3659 77.4596 58.8867 75.6367C59.3424 75.8971 59.7331 76.0924 60.0586 76.2227C60.7747 76.5482 61.4258 76.9062 62.0117 77.2969C68.1966 81.0078 74.6094 81.3984 81.25 78.4688C82.4219 78.013 83.6263 77.5573 84.8633 77.1016C86.7513 76.4505 88.6068 75.6693 90.4297 74.7578C92.1875 73.8464 93.6523 72.5768 94.8242 70.9492C97.7539 66.7174 101.009 62.8763 104.59 59.4258C108.236 55.9102 111.979 52.5573 115.82 49.3672C116.862 48.5208 117.871 47.6419 118.848 46.7305C122.168 43.8008 125.749 41.1966 129.59 38.918C134.993 35.793 140.755 36.1185 146.875 39.8945C151.432 42.4987 154.264 45.5586 155.371 49.0742C156.478 52.5898 156.608 56.5612 155.762 60.9883C155.697 61.5091 155.632 62.0299 155.566 62.5508C154.004 72.1211 152.637 81.7565 151.465 91.457C150.944 96.4701 150.553 101.516 150.293 106.594C150.163 109.523 150 112.453 149.805 115.383C149.479 119.419 149.121 123.423 148.73 127.395C147.949 135.207 147.396 143.02 147.07 150.832C146.745 160.142 146.615 169.419 146.68 178.664C146.68 184.393 146.615 190.122 146.484 195.852C146.289 206.724 145.996 217.596 145.605 228.469C145.41 230.422 145.605 232.147 146.191 233.645C146.842 235.142 148.438 236.216 150.977 236.867C147.201 237.583 145.41 239.699 145.605 243.215C145.41 250.572 145.573 257.928 146.094 265.285C146.615 272.577 147.786 279.836 149.609 287.062C150.065 288.951 150.456 290.904 150.781 292.922C151.172 295.591 151.758 298.195 152.539 300.734C153.646 303.664 154.948 306.464 156.445 309.133C157.096 310.37 157.715 311.574 158.301 312.746C162.077 311.965 164.486 310.956 165.527 309.719C166.569 308.547 167.188 306.105 167.383 302.395C167.448 301.743 167.643 301.125 167.969 300.539C170.312 295.917 172.168 291.132 173.535 286.184C174.967 281.301 176.204 276.353 177.246 271.34C178.092 267.434 179.036 263.527 180.078 259.621C181.25 255.064 182.357 250.441 183.398 245.754C184.375 241.717 185.352 237.681 186.328 233.645C189.128 222.967 191.992 212.29 194.922 201.613C195.443 199.79 195.964 197.967 196.484 196.145C198.112 190.09 199.805 184.068 201.562 178.078C206.706 161.281 211.882 144.484 217.09 127.688C220.28 116.555 224.577 105.812 229.98 95.4609C231.608 92.3359 232.91 89.0482 233.887 85.5977C234.342 84.1003 234.831 82.6354 235.352 81.2031C235.417 81.0078 235.449 80.8125 235.449 80.6172C235.449 80.487 235.449 80.3568 235.449 80.2266C235.449 80.0964 235.482 79.9987 235.547 79.9336C237.63 77.2643 239.03 74.4648 239.746 71.5352C240.527 68.5404 241.113 65.4805 241.504 62.3555C241.764 59.9466 242.155 57.5378 242.676 55.1289C243.392 51.7435 244.076 48.2604 244.727 44.6797C244.987 42.987 245.28 41.2943 245.605 39.6016C246.387 39.9922 247.135 40.3503 247.852 40.6758C249.414 41.3919 250.911 42.2057 252.344 43.1172C255.339 45.0052 257.324 47.3815 258.301 50.2461C259.277 53.0456 259.505 56.0404 258.984 59.2305C258.398 63.7878 257.878 68.3451 257.422 72.9023C256.706 82.3424 255.176 91.7174 252.832 101.027C251.79 105.389 251.107 109.849 250.781 114.406C250.651 115.448 250.553 116.49 250.488 117.531C250.293 119.159 250.098 120.819 249.902 122.512C248.796 132.147 247.884 141.815 247.168 151.516C246.452 163.495 245.964 175.507 245.703 187.551C245.638 191.522 245.703 195.461 245.898 199.367C245.964 201.06 246.029 202.72 246.094 204.348C246.224 209.621 246.322 214.927 246.387 220.266C246.582 233.742 247.005 247.219 247.656 260.695C248.242 267.01 249.512 273.26 251.465 279.445C251.725 280.357 251.986 281.268 252.246 282.18C253.288 285.826 254.492 289.406 255.859 292.922C256.706 295.201 257.52 297.512 258.301 299.855C258.822 301.483 259.245 303.143 259.57 304.836C259.831 306.008 260.091 307.18 260.352 308.352C260.742 310.044 261.328 311.607 262.109 313.039C262.956 314.471 264.323 315.383 266.211 315.773C268.294 316.164 270.312 316.099 272.266 315.578C274.219 315.122 275.814 314.016 277.051 312.258C277.832 311.086 278.646 309.947 279.492 308.84C280.794 307.212 281.966 305.52 283.008 303.762C284.049 302.069 284.701 300.116 284.961 297.902C285.286 296.079 285.97 294.289 287.012 292.531C287.142 292.271 287.272 292.043 287.402 291.848C288.9 288.462 289.421 284.979 288.965 281.398C288.9 279.706 288.932 277.98 289.062 276.223C289.128 275.637 289.193 275.018 289.258 274.367C289.258 273 289.388 271.698 289.648 270.461C289.974 269.159 290.723 267.987 291.895 266.945C292.09 266.75 292.22 266.49 292.285 266.164C292.35 265.839 292.415 265.513 292.48 265.188C292.48 264.927 292.513 264.667 292.578 264.406C292.969 262.323 293.359 260.24 293.75 258.156C295.573 248.716 297.363 239.276 299.121 229.836C299.186 229.38 299.316 228.892 299.512 228.371C299.902 227.525 300.065 226.711 300 225.93C300 225.083 299.382 224.302 298.145 223.586C297.949 223.456 297.884 223.13 297.949 222.609C298.079 222.023 298.242 221.372 298.438 220.656C298.633 219.875 298.828 219.191 299.023 218.605C300.13 214.764 301.302 210.923 302.539 207.082C303.255 204.803 303.939 202.525 304.59 200.246C305.566 197.967 305.534 195.591 304.492 193.117C304.232 192.661 304.102 192.076 304.102 191.359C304.102 190.643 304.167 189.992 304.297 189.406C304.427 188.755 304.622 188.365 304.883 188.234C306.641 187.453 307.747 186.444 308.203 185.207C308.659 183.905 308.952 182.538 309.082 181.105C309.147 180.129 309.277 179.152 309.473 178.176C311.165 172.121 312.826 166.034 314.453 159.914C316.797 151.19 319.173 142.434 321.582 133.645C322.493 130.52 323.503 127.46 324.609 124.465C325.195 122.837 325.749 121.242 326.27 119.68C326.335 119.549 326.367 119.419 326.367 119.289C326.758 118.312 326.986 117.368 327.051 116.457C327.116 115.48 327.083 114.504 326.953 113.527C326.693 111.509 326.888 109.751 327.539 108.254C328.06 107.408 328.711 106.594 329.492 105.812C330.664 104.641 331.608 103.241 332.324 101.613C333.105 99.1393 333.952 96.7305 334.863 94.3867C335.97 91.5872 336.979 88.8203 337.891 86.0859C338.151 84.9792 338.249 83.8398 338.184 82.668C338.184 82.082 338.216 81.4961 338.281 80.9102C338.281 80.7148 338.281 80.487 338.281 80.2266C338.281 79.8359 338.281 79.4779 338.281 79.1523C338.346 78.8268 338.477 78.599 338.672 78.4688C340.625 77.4271 342.025 76.0924 342.871 74.4648C343.783 72.8372 344.499 71.0794 345.02 69.1914C345.605 67.1732 346.387 65.2852 347.363 63.5273C349.186 60.5977 350.879 57.6029 352.441 54.543C353.678 52.069 355.013 49.6276 356.445 47.2188C359.18 42.7917 362.012 38.4297 364.941 34.1328C365.658 33.0911 366.374 32.0169 367.09 30.9102C367.741 29.9987 368.49 29.0547 369.336 28.0781C369.792 27.5573 370.28 26.9714 370.801 26.3203C372.689 28.0781 374.772 29.25 377.051 29.8359C379.395 30.4219 381.868 30.8125 384.473 31.0078C386.035 31.2031 387.63 31.3984 389.258 31.5938C388.477 32.7656 387.793 33.8073 387.207 34.7188C386.1 36.4115 385.124 37.9414 384.277 39.3086C382.715 41.6523 381.152 43.9635 379.59 46.2422C376.27 51.125 373.014 56.0729 369.824 61.0859C369.238 61.9323 368.652 62.8112 368.066 63.7227C364.746 68.6055 361.849 73.6836 359.375 78.957C358.724 80.4544 358.04 81.9518 357.324 83.4492C354.98 87.9414 353.223 92.7591 352.051 97.9023C351.204 101.613 349.74 105.227 347.656 108.742C346.289 111.151 345.117 113.625 344.141 116.164C341.797 122.609 339.648 129.12 337.695 135.695C336.654 139.081 335.579 142.499 334.473 145.949C334.017 147.316 333.496 148.684 332.91 150.051C332.194 151.809 331.576 153.566 331.055 155.324C328.06 165.806 325.358 176.32 322.949 186.867C320.54 197.414 318.815 208.091 317.773 218.898C316.992 225.995 316.048 233.059 314.941 240.09C314.225 244.973 313.542 249.855 312.891 254.738C312.565 260.012 311.426 265.122 309.473 270.07C308.757 272.023 308.561 274.172 308.887 276.516C308.952 277.427 308.984 278.306 308.984 279.152C308.984 279.934 309.049 280.747 309.18 281.594C309.44 283.026 309.44 284.393 309.18 285.695C308.919 286.672 308.659 287.648 308.398 288.625C306.641 295.852 304.525 302.98 302.051 310.012C299.382 317.824 294.531 324.074 287.5 328.762C282.617 332.082 277.344 332.701 271.68 330.617C268.88 329.576 266.081 328.892 263.281 328.566C262.109 328.371 261.003 328.176 259.961 327.98ZM335.156 118.703C334.049 118.638 333.105 118.866 332.324 119.387C331.543 119.842 331.185 120.721 331.25 122.023C331.38 122.74 331.738 123.521 332.324 124.367C332.585 124.758 332.845 125.181 333.105 125.637C333.366 125.311 333.594 125.018 333.789 124.758C335.026 123.065 336.068 121.665 336.914 120.559C336.849 120.493 336.816 120.428 336.816 120.363C336.165 119.712 335.579 119.094 335.059 118.508C336.947 116.164 337.891 114.602 337.891 113.82C337.956 112.974 337.044 112.225 335.156 111.574C335.156 113.853 335.156 116.229 335.156 118.703ZM325 143.312C325.846 142.727 326.66 142.141 327.441 141.555C328.288 140.969 329.297 140.285 330.469 139.504C330.534 139.504 330.599 139.471 330.664 139.406C328.841 139.341 327.539 139.374 326.758 139.504C325.977 139.569 325.488 139.895 325.293 140.48C325.098 141.066 325 142.01 325 143.312ZM350.488 173.684C352.897 173.618 355.046 174.204 356.934 175.441C358.822 176.613 360.612 178.013 362.305 179.641C363.086 180.357 363.867 181.008 364.648 181.594C365.299 182.31 365.625 183.449 365.625 185.012C365.625 186.509 365.527 187.941 365.332 189.309C364.616 194.452 363.867 199.595 363.086 204.738C361.914 212.616 360.872 220.493 359.961 228.371C358.984 238.918 358.171 249.432 357.52 259.914C357.259 264.602 356.966 269.257 356.641 273.879C356.576 274.595 356.51 275.344 356.445 276.125C356.38 276.451 356.348 276.776 356.348 277.102C350.098 280.292 345.247 278.762 341.797 272.512C340.951 271.014 340.169 269.549 339.453 268.117C339.062 267.466 338.704 266.815 338.379 266.164C338.574 264.992 338.737 263.82 338.867 262.648C339.193 259.849 339.648 257.115 340.234 254.445C340.43 253.273 340.43 252.069 340.234 250.832C340.039 249.465 340.072 248.195 340.332 247.023C340.527 245.852 341.439 244.94 343.066 244.289C342.09 241.685 341.699 239.211 341.895 236.867C342.025 234.458 342.383 232.082 342.969 229.738C343.49 227.264 343.848 224.693 344.043 222.023C344.694 222.805 345.215 223.488 345.605 224.074C346.061 224.595 346.549 225.246 347.07 226.027C347.331 223.944 347.656 221.958 348.047 220.07C348.958 215.839 349.284 211.802 349.023 207.961C348.438 202.883 348.372 197.805 348.828 192.727C349.219 188.495 349.609 184.165 350 179.738C350.13 177.785 350.293 175.767 350.488 173.684ZM374.805 131.008C375.456 131.529 375.944 132.342 376.27 133.449C376.66 134.491 376.79 135.467 376.66 136.379C375.423 143.345 374.056 150.376 372.559 157.473C372.103 159.882 371.615 162.355 371.094 164.895C368.164 165.09 365.918 164.96 364.355 164.504C362.793 164.048 361.426 162.909 360.254 161.086C359.082 159.198 357.65 156.268 355.957 152.297C358.105 150.083 358.887 147.154 358.301 143.508C357.975 140.643 358.268 137.648 359.18 134.523C359.505 133.156 359.766 131.789 359.961 130.422C360.156 128.859 360.384 127.167 360.645 125.344C360.775 124.432 360.905 123.423 361.035 122.316C362.402 123.163 363.737 123.977 365.039 124.758C368.424 126.711 371.68 128.794 374.805 131.008ZM406.25 233.938C406.185 232.831 406.152 231.724 406.152 230.617C405.501 230.812 404.948 230.845 404.492 230.715C404.102 230.52 404.102 230.031 404.492 229.25C406.25 225.669 408.105 222.089 410.059 218.508C410.775 217.141 411.491 215.773 412.207 214.406C414.355 213.755 415.951 212.681 416.992 211.184C418.099 209.686 418.978 208.091 419.629 206.398C420.28 204.706 421.094 203.176 422.07 201.809C421.81 201.353 421.549 200.93 421.289 200.539C420.964 200.083 420.703 199.693 420.508 199.367C420.312 198.977 420.28 198.651 420.41 198.391C421.452 195.656 422.721 193.052 424.219 190.578C426.497 186.542 428.809 182.57 431.152 178.664C432.064 177.102 432.975 175.539 433.887 173.977C437.598 172.544 441.146 172.121 444.531 172.707C447.982 173.293 451.465 174.237 454.98 175.539C456.022 175.865 457.096 176.223 458.203 176.613C457.943 177.72 457.682 178.794 457.422 179.836C456.836 182.049 456.283 184.23 455.762 186.379C454.655 190.285 453.581 194.224 452.539 198.195C449.87 208.482 447.005 218.736 443.945 228.957C441.992 236.379 440.918 243.898 440.723 251.516C440.658 252.557 440.592 253.599 440.527 254.641C440.332 257.766 440.397 260.956 440.723 264.211C440.788 265.448 440.853 266.717 440.918 268.02C440.983 268.605 441.081 269.191 441.211 269.777C441.276 270.298 441.341 270.819 441.406 271.34C441.602 272.967 441.536 274.53 441.211 276.027C440.951 277.525 440.007 278.664 438.379 279.445C436.882 280.031 435.482 279.999 434.18 279.348C432.878 278.697 431.673 277.883 430.566 276.906C430.111 276.516 429.688 276.158 429.297 275.832C427.865 274.79 426.628 273.651 425.586 272.414C425.065 271.763 424.642 271.047 424.316 270.266C423.991 269.419 423.828 268.573 423.828 267.727C423.958 258.026 424.186 248.033 424.512 237.746C424.577 234.556 424.642 231.268 424.707 227.883C424.056 229.315 423.405 230.65 422.754 231.887C421.452 234.556 420.215 237.03 419.043 239.309C416.895 243.28 414.746 247.219 412.598 251.125C411.426 253.273 410.286 255.422 409.18 257.57C408.659 258.482 408.138 259.393 407.617 260.305C406.25 262.714 404.98 265.155 403.809 267.629C402.572 270.363 401.139 272.023 399.512 272.609C397.949 273.195 395.671 273.26 392.676 272.805C390.527 272.544 388.607 271.926 386.914 270.949C385.286 269.973 383.691 268.898 382.129 267.727C380.632 266.62 379.069 265.578 377.441 264.602C377.116 264.406 376.79 264.016 376.465 263.43C376.139 262.779 375.944 262.16 375.879 261.574C375.749 260.923 375.781 260.402 375.977 260.012C377.604 256.887 378.516 253.599 378.711 250.148C378.971 247.805 379.46 245.526 380.176 243.312C380.241 243.117 380.404 242.954 380.664 242.824C380.859 242.629 381.12 242.466 381.445 242.336C381.706 242.206 381.934 242.076 382.129 241.945C380.176 247.219 379.753 253.111 380.859 259.621C381.185 258.189 381.51 256.854 381.836 255.617C382.422 253.143 382.975 250.799 383.496 248.586C383.822 246.763 384.212 244.908 384.668 243.02C385.905 238.332 386.719 233.645 387.109 228.957C387.37 223.944 388.053 219.029 389.16 214.211C389.681 211.477 390.169 208.742 390.625 206.008C390.625 205.617 390.527 205.259 390.332 204.934C390.137 204.543 389.876 204.152 389.551 203.762C389.29 203.371 389.03 202.98 388.77 202.59C388.574 202.199 388.477 201.809 388.477 201.418C388.346 198.228 388.346 195.038 388.477 191.848C388.542 189.113 388.574 186.411 388.574 183.742C388.444 181.464 388.216 179.087 387.891 176.613C387.76 175.441 387.63 174.204 387.5 172.902C388.021 172.967 388.509 173.033 388.965 173.098C390.007 173.228 390.983 173.423 391.895 173.684C393.522 174.204 395.117 174.725 396.68 175.246C397.786 175.637 398.893 176.027 400 176.418C402.799 177.264 404.622 178.501 405.469 180.129C406.38 181.691 406.543 184.035 405.957 187.16C404.59 194.712 403.223 202.264 401.855 209.816C400.163 219.387 398.47 228.957 396.777 238.527C396.777 238.658 396.745 238.755 396.68 238.82C396.354 240.318 396.289 241.75 396.484 243.117C397.201 245.982 398.828 246.6 401.367 244.973C401.367 244.973 401.335 244.973 401.27 244.973C401.27 244.908 401.27 244.875 401.27 244.875C401.27 244.875 401.237 244.875 401.172 244.875C401.172 244.81 401.172 244.777 401.172 244.777C401.042 245.754 400.879 246.698 400.684 247.609C400.553 248.521 400.391 249.432 400.195 250.344C401.823 248.521 403.255 246.633 404.492 244.68C405.729 242.661 406.478 240.415 406.738 237.941C406.673 237.421 406.608 236.9 406.543 236.379C406.478 235.533 406.38 234.719 406.25 233.938ZM421.582 204.836C423.079 204.641 424.674 203.827 426.367 202.395C428.06 200.962 429.167 199.595 429.688 198.293C430.078 197.121 430.599 195.917 431.25 194.68C431.51 194.159 431.803 193.573 432.129 192.922C430.957 192.596 430.013 192.629 429.297 193.02C428.581 193.345 427.897 193.801 427.246 194.387C426.855 194.842 426.432 195.233 425.977 195.559C425.521 195.819 425.033 195.982 424.512 196.047C424.707 197.87 424.772 199.237 424.707 200.148C424.642 200.995 424.382 201.743 423.926 202.395C423.47 203.046 422.689 203.859 421.582 204.836C421.387 205.552 421.159 206.268 420.898 206.984C420.312 208.677 419.727 210.37 419.141 212.062C418.815 212.909 418.685 213.658 418.75 214.309C418.88 214.96 419.629 215.383 420.996 215.578C422.038 213.885 422.656 212.16 422.852 210.402C423.112 208.579 422.689 206.724 421.582 204.836ZM431.738 219.68C431.152 219.549 430.566 219.419 429.98 219.289C429.72 220.461 429.492 221.665 429.297 222.902C428.971 224.53 428.646 226.158 428.32 227.785C428.516 227.785 428.743 227.818 429.004 227.883C429.264 227.948 429.525 228.013 429.785 228.078C430.436 225.279 431.087 222.479 431.738 219.68ZM513.867 230.617C519.466 233.677 524.935 236.672 530.273 239.602C529.883 240.839 529.557 242.01 529.297 243.117C528.776 245.526 527.962 247.674 526.855 249.562C522.819 256.203 518.327 262.518 513.379 268.508C510.189 271.893 506.413 274.53 502.051 276.418C499.447 277.525 496.908 277.753 494.434 277.102C492.025 276.451 489.844 275.148 487.891 273.195C487.565 272.87 487.207 272.544 486.816 272.219C484.082 269.615 481.478 266.913 479.004 264.113C476.595 261.314 474.577 258.156 472.949 254.641C470.996 250.474 469.499 246.242 468.457 241.945C467.48 237.648 467.253 233.124 467.773 228.371C468.88 218.475 471.387 209.068 475.293 200.148C477.246 195.917 479.688 192.076 482.617 188.625C485.547 185.109 488.672 181.789 491.992 178.664C493.62 177.297 495.605 176.255 497.949 175.539C498.991 175.148 500.065 174.693 501.172 174.172C500.586 173.26 500.098 172.512 499.707 171.926C499.772 171.796 499.837 171.665 499.902 171.535C500.098 171.275 500.293 171.079 500.488 170.949C505.566 168.28 510.775 167.954 516.113 169.973C518.457 171.014 520.605 172.414 522.559 174.172C523.991 175.539 525.326 177.036 526.562 178.664C526.953 179.185 527.376 179.706 527.832 180.227C530.632 183.742 532.031 187.355 532.031 191.066C532.031 194.712 530.469 198.13 527.344 201.32C522.786 205.943 517.871 210.109 512.598 213.82C507.324 217.531 501.497 220.363 495.117 222.316C493.164 222.772 490.983 222.87 488.574 222.609C487.337 222.479 486.068 222.414 484.766 222.414C480.794 231.464 479.98 241.327 482.324 252.004C482.78 254.087 483.984 255.617 485.938 256.594C487.956 257.57 490.137 257.668 492.48 256.887C496.777 255.454 500.521 253.436 503.711 250.832C506.901 248.163 509.115 244.452 510.352 239.699C510.807 237.941 511.523 236.053 512.5 234.035C512.891 232.993 513.346 231.854 513.867 230.617ZM516.797 185.793C500.326 190.285 492.057 198.098 491.992 209.23C492.253 208.775 492.513 208.319 492.773 207.863C493.88 205.78 495.052 204.12 496.289 202.883C497.526 201.646 499.121 201.483 501.074 202.395C501.986 201.809 502.832 201.288 503.613 200.832C505.111 199.921 506.38 199.042 507.422 198.195C507.943 197.805 508.464 197.414 508.984 197.023C509.896 196.372 510.71 195.721 511.426 195.07C512.142 194.419 512.598 193.736 512.793 193.02C513.184 191.001 514.16 189.048 515.723 187.16C516.048 186.77 516.406 186.314 516.797 185.793ZM497.461 209.816C500.911 209.556 503.906 208.514 506.445 206.691C509.049 204.868 510.514 202.753 510.84 200.344C509.603 201.19 508.366 202.036 507.129 202.883C504.134 205.031 500.911 207.342 497.461 209.816ZM493.652 210.598C493.001 210.988 492.383 211.346 491.797 211.672C490.169 212.714 488.737 213.592 487.5 214.309C487.63 214.309 487.76 214.341 487.891 214.406C488.802 214.732 489.681 214.96 490.527 215.09C491.374 215.155 492.09 214.895 492.676 214.309C493.262 213.658 493.587 212.421 493.652 210.598Z" fill="#FFCACA"/>
</g>
<defs>
<filter id="filter0_d_394_4" x="32.1055" y="0.320312" width="525.926" height="359.422" filterUnits="userSpaceOnUse" color-interpolation-filters="sRGB">
<feFlood flood-opacity="0" result="BackgroundImageFix"/>
<feColorMatrix in="SourceAlpha" type="matrix" values="0 0 0 0 0 0 0 0 0 0 0 0 0 0 0 0 0 0 127 0" result="hardAlpha"/>
<feOffset/>
<feGaussianBlur stdDeviation="13"/>
<feComposite in2="hardAlpha" operator="out"/>
<feColorMatrix type="matrix" values="0 0 0 0 1 0 0 0 0 0.1125 0 0 0 0 0.1125 0 0 0 1 0"/>
<feBlend mode="normal" in2="BackgroundImageFix" result="effect1_dropShadow_394_4"/>
<feBlend mode="normal" in="SourceGraphic" in2="effect1_dropShadow_394_4" result="shape"/>
</filter>
<filter id="filter1_f_394_4" x="50.1055" y="18.3203" width="489.926" height="323.422" filterUnits="userSpaceOnUse" color-interpolation-filters="sRGB">
<feFlood flood-opacity="0" result="BackgroundImageFix"/>
<feBlend mode="normal" in="SourceGraphic" in2="BackgroundImageFix" result="shape"/>
<feGaussianBlur stdDeviation="4" result="effect1_foregroundBlur_394_4"/>
</filter>
</defs>
</svg>
