<svg width="33" height="25" viewBox="0 0 33 25" fill="none" xmlns="http://www.w3.org/2000/svg">
<path d="M32.788 5.52003C32.788 2.59042 30.6543 0.233717 28.0178 0.233717C24.4467 0.0651022 20.8046 0 17.0826 0H15.9223C12.2094 0 8.56085 0.0651023 4.98969 0.234369C2.35967 0.234369 0.226006 2.6041 0.226006 5.5337C0.0648533 7.8507 -0.00347568 10.1683 0.000391994 12.486C-0.00605413 14.8036 0.067002 17.1234 0.21956 19.4454C0.21956 22.375 2.35323 24.7513 4.98325 24.7513C8.73489 24.9271 12.5832 25.0052 16.496 24.9987C20.4153 25.0117 24.2529 24.9292 28.0088 24.7513C30.6453 24.7513 32.7789 22.375 32.7789 19.4454C32.9336 17.1213 33.0046 14.8036 32.9981 12.4795C33.0127 10.1618 32.9427 7.84202 32.788 5.52003ZM13.3439 18.8725V6.07991L22.6908 12.473L13.3439 18.8725Z" fill="white"/>
</svg>
